<svg width="34" height="34" viewBox="0 0 34 34" fill="none" xmlns="http://www.w3.org/2000/svg">
<path fill-rule="evenodd" clip-rule="evenodd" d="M9.5 5.75C9.5 2.98858 11.7386 0.75 14.5 0.75H19.5C22.2614 0.75 24.5 2.98858 24.5 5.75V6.09163C26.0541 6.23389 27.5957 6.41994 29.1234 6.64853C31.5468 7.01113 33.25 9.11939 33.25 11.5095V16.5648C33.25 18.5834 32.0273 20.4854 30.0229 21.1518C25.9277 22.5133 21.5486 23.25 17.0001 23.25C12.4514 23.25 8.07237 22.5133 3.97711 21.1518C1.97273 20.4854 0.75 18.5833 0.75 16.5648V11.5095C0.75 9.11939 2.45318 7.01114 4.8766 6.64853C6.40434 6.41994 7.94589 6.2339 9.5 6.09163V5.75ZM22 5.75V5.90137C20.3461 5.80094 18.6789 5.75 17 5.75C15.3211 5.75 13.6539 5.80094 12 5.90137V5.75C12 4.36929 13.1193 3.25 14.5 3.25H19.5C20.8807 3.25 22 4.36929 22 5.75ZM17 19.5C17.6904 19.5 18.25 18.9404 18.25 18.25C18.25 17.5596 17.6904 17 17 17C16.3096 17 15.75 17.5596 15.75 18.25C15.75 18.9404 16.3096 19.5 17 19.5Z" fill="#9EFF00"/>
<path d="M2 27.6666V23.0065C2.37173 23.2104 2.76829 23.3844 3.18839 23.5241C7.53478 24.9691 12.18 25.75 17.0001 25.75C21.8201 25.75 26.4652 24.9691 30.8116 23.5241C31.2317 23.3845 31.6283 23.2105 32 23.0066V27.6666C32 30.0865 30.2546 32.2125 27.7948 32.5391C24.2626 33.008 20.6592 33.25 17 33.25C13.3408 33.25 9.73744 33.008 6.20522 32.5391C3.7454 32.2125 2 30.0865 2 27.6666Z" fill="#9EFF00"/>
</svg>
