<svg width="33" height="30" viewBox="0 0 33 30" fill="none" xmlns="http://www.w3.org/2000/svg">
<path fill-rule="evenodd" clip-rule="evenodd" d="M0.417969 5C0.417969 2.23858 2.65655 0 5.41797 0H27.918C30.6794 0 32.918 2.23858 32.918 5V25C32.918 27.7614 30.6794 30 27.918 30H5.41797C2.65655 30 0.417969 27.7614 0.417969 25V5ZM7.03409 6.61612C7.52224 6.12796 8.3137 6.12796 8.80185 6.61612L12.5519 10.3661C13.04 10.8543 13.04 11.6457 12.5519 12.1339L8.80185 15.8839C8.3137 16.372 7.52224 16.372 7.03409 15.8839C6.54593 15.3957 6.54593 14.6043 7.03409 14.1161L9.9002 11.25L7.03409 8.38388C6.54593 7.89573 6.54593 7.10427 7.03409 6.61612ZM14.168 13.75C13.4776 13.75 12.918 14.3096 12.918 15C12.918 15.6904 13.4776 16.25 14.168 16.25H19.168C19.8583 16.25 20.418 15.6904 20.418 15C20.418 14.3096 19.8583 13.75 19.168 13.75H14.168Z" fill="#9EFF00"/>
</svg>
