<svg width="33" height="30" viewBox="0 0 33 30" fill="none" xmlns="http://www.w3.org/2000/svg">
<path fill-rule="evenodd" clip-rule="evenodd" d="M0.5 5C0.5 2.23858 2.73858 0 5.5 0H28C30.7614 0 33 2.23858 33 5V25C33 27.7614 30.7614 30 28 30H5.5C2.73858 30 0.5 27.7614 0.5 25V5ZM7.11612 6.61612C7.60427 6.12796 8.39573 6.12796 8.88388 6.61612L12.6339 10.3661C13.122 10.8543 13.122 11.6457 12.6339 12.1339L8.88388 15.8839C8.39573 16.372 7.60427 16.372 7.11612 15.8839C6.62796 15.3957 6.62796 14.6043 7.11612 14.1161L9.98223 11.25L7.11612 8.38388C6.62796 7.89573 6.62796 7.10427 7.11612 6.61612ZM14.25 13.75C13.5596 13.75 13 14.3096 13 15C13 15.6904 13.5596 16.25 14.25 16.25H19.25C19.9404 16.25 20.5 15.6904 20.5 15C20.5 14.3096 19.9404 13.75 19.25 13.75H14.25Z" fill="#9EFF00"/>
</svg>
