<svg width="33" height="33" viewBox="0 0 33 33" fill="none" xmlns="http://www.w3.org/2000/svg">
<path d="M0.286133 9.32588C0.286133 10.7991 1.85979 11.1674 2.79729 10.2132L10.2136 2.79686C11.1846 1.84262 10.7995 0.285706 9.3263 0.285706H1.80958C0.87207 0.285706 0.286133 0.921866 0.286133 1.82588V9.32588ZM4.60533 6.71428L25.8163 27.942L27.9424 25.8493L6.73145 4.60491L4.60533 6.71428ZM32.2783 23.2377C32.2783 21.7477 30.7047 21.3961 29.7504 22.3337L22.3341 29.75C21.3798 30.721 21.765 32.2779 23.2381 32.2779H30.7548C31.6924 32.2779 32.2783 31.625 32.2783 30.7377V23.2377ZM32.2783 9.32588V1.82588C32.2783 0.921866 31.6924 0.285706 30.7548 0.285706H23.2381C21.765 0.285706 21.3798 1.84262 22.3341 2.79686L29.7504 10.2132C30.7047 11.1674 32.2783 10.7991 32.2783 9.32588ZM6.73145 27.942L27.9591 6.71428L25.833 4.60491L4.60533 25.8326L6.73145 27.942ZM0.286133 23.2377V30.7377C0.286133 31.625 0.87207 32.2779 1.80958 32.2779H9.3263C10.7995 32.2779 11.1846 30.721 10.2136 29.75L2.79729 22.3337C1.85979 21.3961 0.286133 21.7477 0.286133 23.2377Z" fill="#9EFF00"/>
</svg>
