<svg width="36" height="32" viewBox="0 0 36 32" fill="none" xmlns="http://www.w3.org/2000/svg">
<path d="M5.12639 25.866L6.48242 28.1763L18.4189 22.183L30.3551 28.1763L31.7113 25.866L19.7749 19.8727V5.74329H17.0796V19.8727L5.12639 25.866ZM0.890904 28.26C0.890904 28.9464 1.1755 29.4487 1.77818 29.7834L5.12639 31.7421C5.56167 32.01 5.86301 32.0603 6.44894 31.7254L9.71345 29.8337C10.3161 29.4988 10.4333 29.2143 10.4166 28.6618L10.4333 24.7778C10.4333 24.1083 10.132 23.6227 9.56278 23.288L6.19782 21.3293C5.76255 21.0948 5.39425 21.0111 4.82505 21.3293L1.51032 23.2544C0.941127 23.5726 0.857422 23.9074 0.857422 24.3761L0.890904 28.26ZM26.3206 28.6786C26.3039 29.231 26.421 29.5156 27.0237 29.8504L30.2883 31.7421C30.8741 32.077 31.1756 32.0268 31.6107 31.7589L34.959 29.8003C35.5617 29.4654 35.8463 28.9631 35.8463 28.2768L35.8797 24.3928C35.8797 23.9241 35.796 23.5893 35.2269 23.2711L31.9121 21.346C31.3429 21.0278 30.9746 21.1116 30.5393 21.346L27.1744 23.3047C26.6051 23.6396 26.3039 24.125 26.3039 24.7946L26.3206 28.6786ZM14.1498 8.60602L17.5316 10.548C18.1007 10.8661 18.6531 10.8661 19.2224 10.548L22.6041 8.60602C23.0729 8.33816 23.2737 8.08705 23.2737 7.40066V3.61718C23.2737 2.94753 23.0729 2.71316 22.6376 2.46205L19.2558 0.536821C18.6531 0.202 18.084 0.202 17.498 0.536821L14.1164 2.46205C13.6978 2.69642 13.4635 2.94753 13.4635 3.61718V7.40066C13.4635 8.08705 13.7146 8.35491 14.1498 8.60602Z" fill="#9EFF00"/>
</svg>
