<svg width="41" height="40" viewBox="0 0 41 40" fill="none" xmlns="http://www.w3.org/2000/svg">
<path d="M16.2112 29.1936H30.4336C32.21 29.1936 32.8436 28.6926 32.8436 27.7127C32.8436 24.84 29.189 20.8761 23.3167 20.8761C17.4557 20.8761 13.8012 24.84 13.8012 27.7127C13.8012 28.6926 14.4347 29.1936 16.2112 29.1936ZM23.328 18.883C25.7607 18.883 27.8538 16.7452 27.8538 13.9616C27.8538 11.2114 25.7494 9.17383 23.328 9.17383C20.9067 9.17383 18.8022 11.256 18.8022 13.9839C18.8022 16.7452 20.8954 18.883 23.328 18.883ZM3.99137 29.1936H12.5905C11.4138 27.5123 12.8507 24.1274 15.2833 22.2791C14.0274 21.4552 12.4094 20.8427 10.2936 20.8427C5.19072 20.8427 2 24.5505 2 27.6348C2 28.6369 2.56573 29.1936 3.99137 29.1936ZM10.3049 19.1392C12.4094 19.1392 14.2424 17.2686 14.2424 14.8524C14.2424 12.4585 12.3981 10.6881 10.3049 10.6881C8.20041 10.6881 6.34481 12.503 6.35613 14.8747C6.35613 17.2686 8.18909 19.1392 10.3049 19.1392ZM31.7008 18.5491C32.0856 18.8051 32.6173 18.7272 32.9228 18.2929C33.7941 17.1683 34.3146 15.5094 34.3146 13.8058C34.3146 12.1022 33.7941 10.4543 32.9228 9.31858C32.6173 8.88433 32.0856 8.80639 31.7008 9.06248C31.2483 9.37425 31.169 9.93098 31.5311 10.3875C32.1873 11.2782 32.5607 12.5142 32.5607 13.8058C32.5607 15.0974 32.1761 16.3221 31.5311 17.224C31.1804 17.6917 31.2483 18.2261 31.7008 18.5491ZM35.8986 21.4552C36.3172 21.7335 36.8376 21.6333 37.1431 21.2102C38.5914 19.2506 39.44 16.556 39.44 13.8058C39.44 11.0556 38.6028 8.33875 37.1431 6.40135C36.8376 5.97824 36.3172 5.87803 35.8986 6.15639C35.4799 6.43475 35.4121 6.95807 35.7402 7.41459C36.9735 9.12929 37.6862 11.4341 37.6862 13.8058C37.6862 16.1774 36.9508 18.4711 35.7402 20.1969C35.4234 20.6534 35.4799 21.1768 35.8986 21.4552Z" fill="#9EFF00"/>
</svg>
