<svg width="41" height="40" viewBox="0 0 41 40" fill="none" xmlns="http://www.w3.org/2000/svg">
<path d="M9.33747 27.8223L9.74664 29.4589C10.2649 31.5867 11.397 32.6778 13.6474 32.6778H28.3365C30.6007 32.6778 31.719 31.6139 32.2509 29.4589L32.6601 27.8223H9.33747ZM8.88739 25.9538H33.1238L35.6879 15.4518L34.5695 14.8108L28.282 19.3934C27.8182 19.7208 27.5046 19.598 27.2454 19.2298L21.3261 10.2826L20.6714 10.2554L14.6976 19.2707C14.4657 19.6253 14.1929 19.7345 13.7292 19.4071L7.56441 14.9062L6.25507 15.2472L8.88739 25.9538ZM6.75971 18.1795C8.56006 18.1795 10.0058 16.7202 10.0058 14.9062C10.0058 13.1332 8.56006 11.6602 6.75971 11.6602C4.95937 11.6602 3.5 13.1195 3.5 14.9062C3.5 16.7202 4.973 18.1795 6.75971 18.1795ZM20.9988 12.5058C22.7855 12.5058 24.2448 11.0464 24.2448 9.24607C24.2448 7.473 22.7855 6 20.9988 6C19.1848 6 17.7391 7.45937 17.7391 9.24607C17.7391 11.0464 19.1985 12.5058 20.9988 12.5058ZM35.2242 18.1795C37.011 18.1795 38.4839 16.7202 38.4839 14.9062C38.4839 13.1195 37.0246 11.6602 35.2242 11.6602C33.4376 11.6602 31.9782 13.1332 31.9782 14.9062C31.9782 16.7202 33.4376 18.1795 35.2242 18.1795Z" fill="#9EFF00"/>
</svg>
