<svg width="37" height="36" viewBox="0 0 37 36" fill="none" xmlns="http://www.w3.org/2000/svg">
<path d="M24.5483 16.5C25.4888 16.5 26.2025 15.6344 25.8229 14.7739C24.5825 11.9624 21.7704 10 18.5 10C18.2075 10 17.9187 10.0157 17.6344 10.0463C16.6986 10.147 16.305 11.1981 16.7756 12.0132L18.933 15.75C19.201 16.2141 19.6962 16.5 20.2321 16.5L24.5483 16.5Z" fill="#9EFF00"/>
<path d="M14.179 13.5157C13.7082 12.7004 12.6005 12.5156 12.0439 13.2748C11.0732 14.5988 10.5 16.2325 10.5 18C10.5 19.7676 11.0732 21.4013 12.044 22.7253C12.6006 23.4845 13.7083 23.2997 14.179 22.4844L16.335 18.7501C16.603 18.286 16.603 17.7142 16.335 17.2501L14.179 13.5157Z" fill="#9EFF00"/>
<path d="M16.7757 23.9868C16.3051 24.8019 16.6987 25.8531 17.6345 25.9537C17.9188 25.9843 18.2076 26 18.5 26C21.7704 26 24.5825 24.0376 25.8229 21.2261C26.2025 20.3656 25.4888 19.5 24.5483 19.5H20.2322C19.6963 19.5 19.2011 19.7859 18.9332 20.25L16.7757 23.9868Z" fill="#9EFF00"/>
<path fill-rule="evenodd" clip-rule="evenodd" d="M26.7591 6.69449L28.0488 4.46055C28.463 3.74312 28.2172 2.82573 27.4998 2.41152C26.7824 1.9973 25.865 2.24312 25.4508 2.96055L24.1623 5.1923C22.8663 4.61853 21.467 4.23568 20 4.07942V1.5C20 0.671573 19.3284 0 18.5 0C17.6716 0 17 0.671573 17 1.5V4.07942C15.533 4.23568 14.1337 4.61854 12.8377 5.19231L11.5492 2.9606C11.135 2.24316 10.2176 1.99735 9.50021 2.41156C8.78277 2.82577 8.53696 3.74316 8.95117 4.4606L10.2409 6.6945C9.07568 7.5472 8.04719 8.57569 7.19449 9.74092L4.96017 8.45094C4.24273 8.03672 3.32535 8.28253 2.91113 8.99997C2.49692 9.71741 2.74273 10.6348 3.46017 11.049L5.69231 12.3377C5.11853 13.6337 4.73568 15.033 4.57941 16.5H2C1.17157 16.5 0.5 17.1716 0.5 18C0.5 18.8284 1.17157 19.5 2 19.5H4.57941C4.73568 20.967 5.11853 22.3663 5.69229 23.6622L3.46017 24.9509C2.74273 25.3651 2.49692 26.2825 2.91113 27C3.32535 27.7174 4.24273 27.9632 4.96017 27.549L7.19447 26.259C8.0471 27.4242 9.07549 28.4526 10.2406 29.3053L8.95075 31.5394C8.53654 32.2568 8.78235 33.1742 9.49979 33.5884C10.2172 34.0027 11.1346 33.7568 11.5488 33.0394L12.8374 30.8075C14.1334 31.3814 15.5329 31.7643 17 31.9206V34.5C17 35.3284 17.6716 36 18.5 36C19.3284 36 20 35.3284 20 34.5V31.9206C21.4671 31.7643 22.8666 31.3814 24.1626 30.8076L25.4512 33.0394C25.8654 33.7569 26.7828 34.0027 27.5002 33.5885C28.2176 33.1743 28.4635 32.2569 28.0492 31.5394L26.7594 29.3053C27.9245 28.4527 28.9528 27.4243 29.8054 26.2592L32.0395 27.549C32.7569 27.9632 33.6743 27.7174 34.0885 27C34.5028 26.2825 34.2569 25.3651 33.5395 24.9509L31.3076 23.6624C31.8814 22.3664 32.2643 20.9671 32.4206 19.5H35C35.8284 19.5 36.5 18.8284 36.5 18C36.5 17.1716 35.8284 16.5 35 16.5H32.4206C32.2643 15.0329 31.8814 13.6336 31.3076 12.3376L33.5395 11.049C34.2569 10.6348 34.5028 9.71741 34.0885 8.99997C33.6743 8.28253 32.7569 8.03672 32.0395 8.45094L29.8054 9.74079C28.9527 8.5756 27.9243 7.54715 26.7591 6.69449ZM18.5 7C16.5224 7 14.6667 7.52187 13.0631 8.43541C13.0425 8.44862 13.0216 8.4614 13.0002 8.47374C12.9796 8.48566 12.9587 8.49704 12.9378 8.50787C11.3134 9.4618 9.95551 10.8208 9.00297 12.4461C8.99349 12.4642 8.9836 12.4821 8.97331 12.5C8.96261 12.5185 8.95156 12.5367 8.9402 12.5547C8.02369 14.1602 7.5 16.0189 7.5 18C7.5 19.9808 8.02358 21.8394 8.9399 23.4448C8.95137 23.4629 8.96251 23.4813 8.97331 23.5C8.9837 23.518 8.99367 23.5361 9.00323 23.5543C9.95639 25.1805 11.3153 26.5401 12.941 27.494C12.9607 27.5043 12.9803 27.515 12.9998 27.5263C13.02 27.5379 13.0398 27.55 13.0593 27.5625C14.6638 28.4773 16.5208 29 18.5 29C20.4794 29 22.3367 28.4772 23.9414 27.5621C23.9606 27.5498 23.9802 27.5378 24.0002 27.5263C24.0195 27.5152 24.0389 27.5046 24.0584 27.4944C25.6827 26.5414 27.0407 25.1835 27.9938 23.5593C28.0042 23.5394 28.015 23.5196 28.0264 23.5C28.0381 23.4796 28.0503 23.4596 28.0628 23.44C28.9775 21.8357 29.5 19.9789 29.5 18C29.5 16.0209 28.9774 14.1639 28.0626 12.5595C28.0501 12.54 28.038 12.5202 28.0264 12.5C28.0151 12.4805 28.0044 12.4609 27.9941 12.4411C27.0416 10.8178 25.6846 9.46047 24.0616 8.5075C24.0408 8.49676 24.0202 8.4855 23.9998 8.47369C23.9786 8.46148 23.9579 8.44882 23.9376 8.43575C22.3338 7.522 20.4779 7 18.5 7Z" fill="#9EFF00"/>
</svg>
