<svg width="38" height="35" viewBox="0 0 38 35" fill="none" xmlns="http://www.w3.org/2000/svg">
<path d="M13.3852 34.1385C13.6865 34.1385 13.9042 33.9207 13.9544 33.6027C14.4901 29.1329 14.7077 29.0156 19.2613 28.279C19.6129 28.212 19.8304 28.0446 19.8304 27.7099C19.8304 27.3918 19.6129 27.1909 19.3283 27.1406C14.7412 26.2702 14.4901 26.2869 13.9544 21.817C13.9042 21.4989 13.6865 21.2813 13.3852 21.2813C13.0671 21.2813 12.8495 21.4989 12.816 21.8003C12.2301 26.337 12.0794 26.4877 7.44211 27.1406C7.15751 27.1742 6.93987 27.3918 6.93987 27.7099C6.93987 28.0279 7.15751 28.212 7.44211 28.279C12.0794 29.1663 12.2133 29.1663 12.816 33.6362C12.8495 33.9207 13.0671 34.1385 13.3852 34.1385ZM5.43317 19.5569C5.66755 19.5569 5.80148 19.3896 5.8517 19.1719C6.4209 15.9912 6.43764 15.7902 9.8026 15.221C10.0202 15.1707 10.1876 15.0369 10.1876 14.8025C10.1876 14.5681 10.0202 14.4174 9.8026 14.384C6.43764 13.798 6.4209 13.5971 5.8517 10.4163C5.80148 10.1987 5.66755 10.048 5.43317 10.048C5.1988 10.048 5.06487 10.1987 5.01465 10.4163C4.44545 13.5971 4.42871 13.798 1.06376 14.384C0.846122 14.4174 0.678711 14.5681 0.678711 14.8025C0.678711 15.0369 0.846122 15.1707 1.06376 15.221C4.42871 15.7902 4.44545 15.9912 5.01465 19.1719C5.06487 19.3896 5.1988 19.5569 5.43317 19.5569ZM14.6073 8.84266C14.8082 8.84266 14.9086 8.72548 14.9421 8.54134C15.5113 5.86276 15.4779 5.76231 18.2903 5.19312C18.4744 5.15964 18.6084 5.04245 18.6084 4.85829C18.6084 4.65741 18.4744 4.54021 18.2903 4.50673C15.4779 3.93753 15.5113 3.83709 14.9421 1.17526C14.9086 0.991106 14.8082 0.857178 14.6073 0.857178C14.4064 0.857178 14.3059 0.991106 14.2725 1.17526C13.7033 3.83709 13.7367 3.93753 10.9243 4.50673C10.7401 4.54021 10.6062 4.65741 10.6062 4.85829C10.6062 5.04245 10.7401 5.15964 10.9243 5.19312C13.7367 5.76231 13.7033 5.86276 14.2725 8.54134C14.3059 8.72548 14.4064 8.84266 14.6073 8.84266ZM28.4354 14.7523C28.6699 14.7523 28.8037 14.6016 28.854 14.384C29.4231 11.2032 29.4399 11.0023 32.8049 10.4163C33.0391 10.3828 33.1899 10.2322 33.1899 9.99781C33.1899 9.76344 33.0391 9.62949 32.8049 9.57928C29.4399 9.01008 29.4231 8.80919 28.854 5.62838C28.8037 5.41075 28.6699 5.24334 28.4354 5.24334C28.201 5.24334 28.0671 5.41075 28.0169 5.62838C27.4477 8.80919 27.431 9.01008 24.066 9.57928C23.8484 9.62949 23.681 9.76344 23.681 9.99781C23.681 10.2322 23.8484 10.3828 24.066 10.4163C27.431 11.0023 27.4477 11.2032 28.0169 14.384C28.0671 14.6016 28.201 14.7523 28.4354 14.7523ZM34.027 33.8706C34.73 34.5905 35.9354 34.5905 36.605 33.8706C37.2914 33.134 37.2914 31.9956 36.605 31.2925L20.6843 15.3215C19.9811 14.6183 18.7759 14.6183 18.1061 15.3215C17.403 16.058 17.4199 17.2132 18.1061 17.9163L34.027 33.8706ZM24.2836 22.3695L19.3784 17.4476C19.0771 17.1462 18.9767 16.8115 19.278 16.5269C19.5291 16.2589 19.8807 16.3259 20.1989 16.644L25.1207 21.5659L24.2836 22.3695Z" fill="#9EFF00"/>
</svg>
