<svg width="37" height="29" viewBox="0 0 37 29" fill="none" xmlns="http://www.w3.org/2000/svg">
<path d="M22.8405 28.4432H32.7963C34.9863 28.4432 36.4508 27.0458 36.4508 24.9499V3.49326C36.4508 1.3973 34.9863 0 32.7963 0H22.8405C20.6505 0 19.1726 1.3973 19.1726 3.49326V24.9499C19.1726 27.0458 20.6505 28.4432 22.8405 28.4432ZM23.1092 26.2801C21.9807 26.2801 21.3358 25.6754 21.3358 24.6005V3.84258C21.3358 2.76773 21.9807 2.16313 23.1092 2.16313H32.5142C33.6428 2.16313 34.2876 2.76773 34.2876 3.84258V24.6005C34.2876 25.6754 33.6428 26.2801 32.5142 26.2801H23.1092ZM1.19577 25.2455C1.89442 25.2455 2.39154 24.7619 2.39154 24.0632V22.0209C2.39154 17.023 5.44141 15.4106 9.35118 15.4106H10.2379L13.9596 15.2897V14.5373L10.3051 17.8693L8.82719 19.1323C8.51817 19.3876 8.43756 19.7234 8.43756 20.0459C8.43756 20.7043 8.94811 21.2014 9.60646 21.2014C9.92891 21.2014 10.2111 21.0804 10.5066 20.7983L16.1899 15.1285C16.4586 14.8733 16.6064 14.5642 16.6064 14.2283C16.6064 13.8924 16.4586 13.5834 16.1899 13.3281L10.4798 7.63142C10.2111 7.36271 9.92891 7.25522 9.60646 7.25522C8.94811 7.25522 8.43756 7.7389 8.43756 8.41069C8.43756 8.73314 8.51817 9.06903 8.82719 9.3243L10.3051 10.5873L13.9596 13.9193V13.1669L10.2379 13.046H9.35118C4.58153 13.046 0 15.236 0 22.0209V24.0632C0 24.7619 0.497117 25.2455 1.19577 25.2455Z" fill="#9EFF00"/>
</svg>
