<svg width="40" height="35" viewBox="0 0 40 35" fill="none" xmlns="http://www.w3.org/2000/svg">
<path d="M7.40399 34.0752C8.52842 34.0752 9.42472 33.1789 9.42472 32.0545C9.42472 30.93 8.51213 30.0338 7.40399 30.0338C6.27956 30.0338 5.38328 30.9463 5.38328 32.0545C5.38328 33.1952 6.29586 34.0752 7.40399 34.0752ZM2.28701 21.6738C3.41145 21.6738 4.30773 20.745 4.30773 19.6368C4.30773 18.4961 3.37885 17.6161 2.28701 17.6161C1.16258 17.6161 0.25 18.5287 0.25 19.6368C0.25 20.7613 1.17888 21.6738 2.28701 21.6738ZM7.40399 9.27249C8.52842 9.27249 9.42472 8.35991 9.42472 7.25177C9.42472 6.11104 8.51213 5.23105 7.40399 5.23105C6.27956 5.23105 5.38328 6.12734 5.38328 7.25177C5.38328 8.37621 6.29586 9.27249 7.40399 9.27249ZM19.9031 4.05773C21.0275 4.05773 21.9238 3.14515 21.9238 2.02071C21.9238 0.896286 21.0113 0 19.9031 0C18.7624 0 17.8824 0.912582 17.8824 2.02071C17.8824 3.16145 18.7787 4.05773 19.9031 4.05773ZM32.386 9.2399C33.5104 9.2399 34.4067 8.32731 34.4067 7.21918C34.4067 6.07845 33.494 5.19846 32.386 5.19846C31.2453 5.19846 30.3489 6.09474 30.3489 7.21918C30.3489 8.34361 31.2615 9.2399 32.386 9.2399ZM37.5192 21.6738C38.6437 21.6738 39.5562 20.745 39.5562 19.6368C39.5562 18.4961 38.6274 17.6161 37.5192 17.6161C36.3785 17.6161 35.4821 18.5287 35.4821 19.6368C35.4821 20.7613 36.4111 21.6738 37.5192 21.6738ZM32.3697 34.0914C33.494 34.0914 34.3904 33.1952 34.3904 32.0708C34.3904 30.9463 33.4777 30.0501 32.3697 30.0501C31.2288 30.0501 30.3326 30.9626 30.3326 32.0708C30.3326 33.2115 31.2453 34.0914 32.3697 34.0914ZM19.9031 31.5003C26.4378 31.5003 31.7503 26.2042 31.7503 19.6368C31.7503 13.5095 27.0897 8.47398 21.109 7.87103L21.0928 19.8813C21.0928 20.5331 20.5223 21.1035 19.9031 21.0872C19.1861 21.0545 18.6809 20.5493 18.6809 19.8486V7.87103C12.7165 8.47398 8.03954 13.5095 8.03954 19.6368C8.03954 26.2205 13.3684 31.5003 19.9031 31.5003Z" fill="#9EFF00"/>
</svg>
