<svg width="40" height="32" viewBox="0 0 40 32" fill="none" xmlns="http://www.w3.org/2000/svg">
<path d="M4.05331 26.2533H35.3758C38.0727 26.2533 39.4291 24.9758 39.4291 22.2V4.12566C39.4291 1.36563 38.0727 0.0881348 35.3758 0.0881348H4.05331C1.35636 0.0881348 0 1.36563 0 4.12566V22.2C0 24.9758 1.35636 26.2533 4.05331 26.2533ZM11.7814 31.5999H27.6477C28.3416 31.5999 28.9252 31.0321 28.9252 30.3223C28.9252 29.6126 28.3416 29.0448 27.6477 29.0448H11.7814C11.0874 29.0448 10.5039 29.6126 10.5039 30.3223C10.5039 31.0321 11.0874 31.5999 11.7814 31.5999ZM20.5346 19.708C20.1877 19.708 19.9668 19.503 19.9196 19.1718C19.2257 14.4245 18.6105 13.3679 13.6267 12.8632C13.2955 12.8158 13.0904 12.5792 13.0904 12.2638C13.0904 11.9642 13.2955 11.7118 13.6267 11.6645C18.5947 11.0021 19.0206 10.1347 19.9196 5.34009C19.9984 5.02465 20.2192 4.81962 20.5346 4.81962C20.8344 4.81962 21.0708 5.04042 21.1182 5.35586C21.828 10.0558 22.4745 11.0021 27.4268 11.6645C27.7423 11.7118 27.963 11.9642 27.963 12.2638C27.963 12.5792 27.7423 12.8158 27.4268 12.8632C22.4588 13.5256 22.0172 14.4245 21.1182 19.1876C21.0551 19.503 20.8344 19.708 20.5346 19.708ZM14.1314 22.3735C13.879 22.3735 13.7529 22.2 13.6741 21.9476C13.2008 19.6291 13.4059 19.5188 10.8509 19.1402C10.5828 19.093 10.4408 18.9352 10.4408 18.6829C10.4408 18.462 10.5828 18.2728 10.8193 18.2413C13.4059 17.8155 13.2008 17.705 13.6741 15.4024C13.7529 15.15 13.8948 14.9766 14.1314 14.9766C14.368 14.9766 14.5257 15.1658 14.5887 15.4024C15.0304 17.705 14.8727 17.8155 17.4592 18.2413C17.68 18.2728 17.8377 18.462 17.8377 18.6829C17.8377 18.9037 17.68 19.093 17.4592 19.1402C14.8727 19.5188 15.0304 19.6291 14.5887 21.9949C14.5257 22.2157 14.3522 22.3735 14.1314 22.3735Z" fill="#9EFF00"/>
</svg>
