<svg width="36" height="40" viewBox="0 0 36 40" fill="none" xmlns="http://www.w3.org/2000/svg">
<path d="M2.17568 37.7603C4.78728 40.3886 8.16898 40.4221 10.7471 37.844C12.8063 35.7849 14.7985 31.1309 16.3219 28.8039L20.3732 32.8719C21.6121 34.1274 23.1188 34.1274 24.2906 32.9221L25.7304 31.4824C26.9525 30.2436 26.9358 28.8373 25.6802 27.5817L12.371 14.2558C11.0987 13.0002 9.67568 12.9835 8.45358 14.2056L7.01386 15.6453C5.8085 16.8507 5.8085 18.3071 7.06407 19.5627L11.1154 23.6141C8.80514 25.1376 4.16787 27.1297 2.09198 29.1889C-0.469405 31.767 -0.452665 35.1654 2.17568 37.7603ZM6.64556 35.584C5.49041 35.584 4.56966 34.6464 4.56966 33.508C4.56966 32.3697 5.49041 31.4489 6.64556 31.4489C7.78394 31.4489 8.7047 32.3697 8.7047 33.508C8.7047 34.6464 7.78394 35.584 6.64556 35.584ZM27.6724 26.8116L34.1679 20.3161C36.0261 18.4579 35.9759 16.248 34.0842 14.3227L33.2304 13.4522C31.4894 15.7123 26.5172 18.3574 25.5629 17.4031C25.4124 17.2524 25.3955 16.9511 25.6132 16.7167C27.6388 14.6911 28.9614 12.7156 29.2628 9.50136L20.6578 0.879702C19.0674 -0.7107 16.3052 -0.191727 15.5518 2.82167C14.4971 7.10739 13.5429 9.6018 12.5049 11.661L27.6724 26.8116Z" fill="#9EFF00"/>
</svg>
