<svg width="40" height="30" viewBox="0 0 40 30" fill="none" xmlns="http://www.w3.org/2000/svg">
<path d="M5.99455 13.0495C6.35955 13.0074 6.7386 12.9793 7.10361 12.9793C7.49669 12.9793 7.87574 13.0074 8.25478 13.0635V10.0031H5.99455V13.0495ZM5.99455 8.07981H8.25478V5.14571C8.25478 3.68569 9.02692 2.94164 10.4308 2.94164H13.3368V0.681396H10.4027C7.46862 0.681396 5.99455 2.12739 5.99455 5.0334V8.07981ZM15.2601 2.94164H21.5915V0.681396H15.2601V2.94164ZM23.5009 2.94164H29.8323V0.681396H23.5009V2.94164ZM39.0979 8.07981V5.0334C39.0979 2.12739 37.6238 0.681396 34.6897 0.681396H31.7556V2.94164H34.6617C36.0656 2.94164 36.8377 3.68569 36.8377 5.14571V8.07981H39.0979ZM39.0979 17.2049V10.0031H36.8377V17.2049H39.0979ZM34.6897 26.5267C37.6238 26.5267 39.0979 25.0808 39.0979 22.1747V19.1283H36.8377V22.0624C36.8377 23.5225 36.0656 24.2665 34.6617 24.2665H31.7556V26.5267H34.6897ZM23.5009 26.5267H29.8323V24.2665H23.5009V26.5267ZM14.9793 26.5127L21.5915 26.5267V24.2665H15.8638C15.6812 25.0668 15.3865 25.8107 14.9793 26.5127ZM7.13168 29.18C11.0345 29.18 14.2633 25.9511 14.2633 22.0483C14.2633 18.1596 11.0204 14.9167 7.11765 14.9167C3.22891 14.9167 0 18.1596 0 22.0483C0 25.9511 3.24295 29.18 7.13168 29.18ZM7.13168 27.4954C4.11335 27.4954 1.69869 25.0668 1.69869 22.0483C1.69869 19.0441 4.11335 16.6013 7.11765 16.6013C10.136 16.6013 12.5647 19.0441 12.5787 22.0483C12.5927 25.0668 10.136 27.4954 7.13168 27.4954ZM7.11765 26.2741C9.44808 26.2741 11.3433 24.3647 11.3433 22.0624C11.3433 19.746 9.43404 17.8368 7.11765 17.8368C4.80125 17.8368 2.90602 19.746 2.90602 22.0624C2.90602 24.3647 4.81529 26.2741 7.11765 26.2741Z" fill="#9EFF00"/>
</svg>
