<svg width="40" height="40" viewBox="0 0 40 40" fill="none" xmlns="http://www.w3.org/2000/svg">
<path d="M20.3632 38.4339C26.0479 38.4339 30.6344 33.8474 30.6344 28.1788C30.6344 22.4941 26.0479 17.9076 20.3632 17.9076C14.6946 17.9076 10.1081 22.4941 10.1081 28.1788C10.1081 33.8474 14.6946 38.4339 20.3632 38.4339ZM17.4401 33.4597C16.8264 33.9119 16.1804 33.4436 16.4226 32.733L17.5854 29.2607L14.6139 27.1452C14.0486 26.7253 14.2263 25.934 15.0015 25.934L18.6513 25.9662L19.7657 22.4779C19.9917 21.7674 20.7669 21.7674 20.993 22.4779L22.1074 25.9662L25.7571 25.934C26.5323 25.934 26.6939 26.7414 26.1448 27.1291L23.1732 29.2607L24.336 32.733C24.5783 33.4436 23.9322 33.9119 23.3186 33.4597L20.3793 31.3118L17.4401 33.4597ZM10.528 20.4915C12.1107 18.4889 14.2909 16.9709 16.7941 16.2279L9.47824 3.08203L5.23085 9.5581C4.94015 9.97798 4.924 10.4463 5.1824 10.8662L10.528 20.4915ZM16.7456 10.7209H23.9969L28.9225 2H11.82L16.7456 10.7209ZM23.9484 16.2279C26.4678 16.9709 28.6319 18.4889 30.2145 20.4915L35.5762 10.8662C35.8185 10.4463 35.8024 9.97798 35.5117 9.5581L31.2642 3.08203L23.9484 16.2279Z" fill="#9EFF00"/>
</svg>
