<svg width="38" height="32" viewBox="0 0 38 32" fill="none" xmlns="http://www.w3.org/2000/svg">
<path fill-rule="evenodd" clip-rule="evenodd" d="M11.5607 6.43934C12.1464 7.02513 12.1464 7.97487 11.5607 8.56066L4.12132 16L11.5607 23.4393C12.1464 24.0251 12.1464 24.9749 11.5607 25.5607C10.9749 26.1464 10.0251 26.1464 9.43934 25.5607L0.93934 17.0607C0.353553 16.4749 0.353553 15.5251 0.93934 14.9393L9.43934 6.43934C10.0251 5.85355 10.9749 5.85355 11.5607 6.43934ZM26.4393 6.43934C27.0251 5.85355 27.9749 5.85355 28.5607 6.43934L37.0607 14.9393C37.6464 15.5251 37.6464 16.4749 37.0607 17.0607L28.5607 25.5607C27.9749 26.1464 27.0251 26.1464 26.4393 25.5607C25.8536 24.9749 25.8536 24.0251 26.4393 23.4393L33.8787 16L26.4393 8.56066C25.8536 7.97487 25.8536 7.02513 26.4393 6.43934Z" fill="#9EFF00"/>
<path fill-rule="evenodd" clip-rule="evenodd" d="M21.7549 0.0218098C22.5712 0.162565 23.1189 0.938478 22.9782 1.75486L17.9782 30.7549C17.8374 31.5712 17.0615 32.1189 16.2451 31.9782C15.4288 31.8374 14.8811 31.0615 15.0218 30.2451L20.0218 1.24514C20.1626 0.428758 20.9385 -0.118946 21.7549 0.0218098Z" fill="#9EFF00"/>
</svg>
