<svg width="37" height="36" viewBox="0 0 37 36" fill="none" xmlns="http://www.w3.org/2000/svg">
<path d="M24.3803 16.5C25.3208 16.5 26.0345 15.6344 25.6549 14.7739C24.4145 11.9624 21.6024 10 18.332 10C18.0396 10 17.7508 10.0157 17.4664 10.0463C16.5306 10.147 16.137 11.1981 16.6076 12.0132L18.7651 15.75C19.033 16.2141 19.5282 16.5 20.0641 16.5L24.3803 16.5Z" fill="#9EFF00"/>
<path d="M14.011 13.5157C13.5403 12.7004 12.4326 12.5156 11.8759 13.2748C10.9052 14.5988 10.332 16.2325 10.332 18C10.332 19.7676 10.9053 21.4013 11.876 22.7253C12.4327 23.4845 13.5403 23.2997 14.0111 22.4844L16.1671 18.7501C16.435 18.286 16.435 17.7142 16.1671 17.2501L14.011 13.5157Z" fill="#9EFF00"/>
<path d="M16.6077 23.9868C16.1371 24.8019 16.5308 25.8531 17.4666 25.9537C17.7509 25.9843 18.0396 26 18.332 26C21.6024 26 24.4145 24.0376 25.6549 21.2261C26.0345 20.3656 25.3209 19.5 24.3804 19.5H20.0642C19.5283 19.5 19.0332 19.7859 18.7652 20.25L16.6077 23.9868Z" fill="#9EFF00"/>
<path fill-rule="evenodd" clip-rule="evenodd" d="M26.5911 6.69449L27.8809 4.46055C28.2951 3.74312 28.0493 2.82573 27.3318 2.41152C26.6144 1.9973 25.697 2.24312 25.2828 2.96055L23.9943 5.1923C22.6984 4.61853 21.299 4.23568 19.832 4.07942V1.5C19.832 0.671573 19.1605 0 18.332 0C17.5036 0 16.832 0.671573 16.832 1.5V4.07942C15.365 4.23568 13.9657 4.61854 12.6698 5.19231L11.3813 2.9606C10.9671 2.24316 10.0497 1.99735 9.33224 2.41156C8.6148 2.82577 8.36899 3.74316 8.7832 4.4606L10.0729 6.6945C8.90771 7.5472 7.87922 8.57569 7.02652 9.74092L4.7922 8.45094C4.07476 8.03672 3.15738 8.28253 2.74316 8.99997C2.32895 9.71741 2.57476 10.6348 3.2922 11.049L5.52434 12.3377C4.95056 13.6337 4.56771 15.033 4.41145 16.5H1.83203C1.0036 16.5 0.332031 17.1716 0.332031 18C0.332031 18.8284 1.0036 19.5 1.83203 19.5H4.41145C4.56771 20.967 4.95056 22.3663 5.52432 23.6622L3.2922 24.9509C2.57476 25.3651 2.32895 26.2825 2.74316 27C3.15738 27.7174 4.07476 27.9632 4.7922 27.549L7.0265 26.259C7.87913 27.4242 8.90752 28.4526 10.0727 29.3053L8.78278 31.5394C8.36857 32.2568 8.61438 33.1742 9.33182 33.5884C10.0493 34.0027 10.9666 33.7568 11.3809 33.0394L12.6694 30.8075C13.9655 31.3814 15.3649 31.7643 16.832 31.9206V34.5C16.832 35.3284 17.5036 36 18.332 36C19.1605 36 19.832 35.3284 19.832 34.5V31.9206C21.2992 31.7643 22.6986 31.3814 23.9946 30.8076L25.2832 33.0394C25.6974 33.7569 26.6148 34.0027 27.3322 33.5885C28.0497 33.1743 28.2955 32.2569 27.8813 31.5394L26.5914 29.3053C27.7565 28.4527 28.7849 27.4243 29.6375 26.2592L31.8715 27.549C32.589 27.9632 33.5064 27.7174 33.9206 27C34.3348 26.2825 34.089 25.3651 33.3715 24.9509L31.1397 23.6624C31.7135 22.3664 32.0963 20.9671 32.2526 19.5H34.832C35.6605 19.5 36.332 18.8284 36.332 18C36.332 17.1716 35.6605 16.5 34.832 16.5H32.2526C32.0963 15.0329 31.7135 13.6336 31.1397 12.3376L33.3715 11.049C34.089 10.6348 34.3348 9.71741 33.9206 8.99997C33.5064 8.28253 32.589 8.03672 31.8715 8.45094L29.6374 9.74079C28.7848 8.5756 27.7563 7.54715 26.5911 6.69449ZM18.332 7C16.3544 7 14.4987 7.52187 12.8951 8.43541C12.8746 8.44862 12.8536 8.4614 12.8322 8.47374C12.8116 8.48566 12.7908 8.49704 12.7698 8.50787C11.1454 9.4618 9.78754 10.8208 8.835 12.4461C8.82552 12.4642 8.81563 12.4821 8.80534 12.5C8.79464 12.5185 8.7836 12.5367 8.77223 12.5547C7.85573 14.1602 7.33203 16.0189 7.33203 18C7.33203 19.9808 7.85561 21.8394 8.77193 23.4448C8.7834 23.4629 8.79454 23.4813 8.80534 23.5C8.81573 23.518 8.8257 23.5361 8.83526 23.5543C9.78842 25.1805 11.1473 26.5401 12.773 27.494C12.7928 27.5043 12.8124 27.515 12.8318 27.5263C12.852 27.5379 12.8719 27.55 12.8913 27.5625C14.4958 28.4773 16.3529 29 18.332 29C20.3115 29 22.1688 28.4772 23.7734 27.5621C23.7927 27.5498 23.8123 27.5378 23.8322 27.5263C23.8515 27.5152 23.8709 27.5046 23.8904 27.4944C25.5147 26.5414 26.8727 25.1835 27.8259 23.5593C27.8362 23.5394 27.8471 23.5196 27.8584 23.5C27.8702 23.4796 27.8823 23.4596 27.8949 23.44C28.8095 21.8357 29.332 19.9789 29.332 18C29.332 16.0209 28.8094 14.1639 27.8946 12.5595C27.8821 12.54 27.8701 12.5202 27.8584 12.5C27.8472 12.4805 27.8364 12.4609 27.8261 12.4411C26.8736 10.8178 25.5166 9.46047 23.8936 8.5075C23.8729 8.49676 23.8523 8.4855 23.8318 8.47369C23.8107 8.46148 23.7899 8.44882 23.7696 8.43575C22.1658 7.522 20.3099 7 18.332 7Z" fill="#9EFF00"/>
</svg>
