<svg width="200" height="200" viewBox="0 0 50 50" fill="none" xmlns="http://www.w3.org/2000/svg">
<path d="M50 25C50 38.8071 38.8071 50 25 50C11.1929 50 0 38.8071 0 25C0 11.1929 11.1929 0 25 0C38.8071 0 50 11.1929 50 25Z" fill="#F8E6D0"/>
<path d="M13.7333 12.655C14.1664 11.2423 15.0139 10.2349 16.2756 9.63284C17.5374 9.03078 19.1822 8.8583 21.2099 9.11541L17.4953 21.0489L29.1619 22.5282L31.5248 14.911C31.958 13.4982 32.8054 12.4908 34.0672 11.8888C35.3567 11.2902 37.0015 11.1177 39.0015 11.3713L31.2682 36.3006C30.835 37.7133 29.9737 38.719 28.6842 39.3175C27.4224 39.9196 25.7915 40.0938 23.7916 39.8402L27.5743 27.7036L15.9077 26.2243L13.4766 34.0447C13.0435 35.4574 12.1821 36.463 10.8926 37.0616C9.63086 37.6637 7.99999 37.8379 6 37.5843L13.7333 12.655Z" fill="#0C0C0C"/>
<path d="M34.6329 39.9976C38.7421 41.3391 43.1608 39.0954 44.5023 34.9862C45.8438 30.8769 43.6001 26.4583 39.4909 25.1168L34.6329 39.9976Z" fill="#0C0C0C"/>
</svg>
