<svg width="36" height="32" viewBox="0 0 36 32" fill="none" xmlns="http://www.w3.org/2000/svg">
<path fill-rule="evenodd" clip-rule="evenodd" d="M12.082 6.25C12.082 2.79822 14.8803 0 18.332 0C21.7838 0 24.582 2.79822 24.582 6.25C24.582 9.70178 21.7838 12.5 18.332 12.5C14.8803 12.5 12.082 9.70178 12.082 6.25Z" fill="#9EFF00"/>
<path fill-rule="evenodd" clip-rule="evenodd" d="M24.582 11.25C24.582 8.48858 26.8206 6.25 29.582 6.25C32.3435 6.25 34.582 8.48858 34.582 11.25C34.582 14.0114 32.3435 16.25 29.582 16.25C26.8206 16.25 24.582 14.0114 24.582 11.25Z" fill="#9EFF00"/>
<path fill-rule="evenodd" clip-rule="evenodd" d="M2.08203 11.25C2.08203 8.48858 4.32061 6.25 7.08203 6.25C9.84345 6.25 12.082 8.48858 12.082 11.25C12.082 14.0114 9.84345 16.25 7.08203 16.25C4.32061 16.25 2.08203 14.0114 2.08203 11.25Z" fill="#9EFF00"/>
<path fill-rule="evenodd" clip-rule="evenodd" d="M8.84847 20.1959C10.8451 17.074 14.3459 15 18.332 15C22.3186 15 25.8198 17.0745 27.8164 20.197C29.1966 22.3557 29.7938 24.9587 29.5136 27.4965C29.4699 27.8932 29.2394 28.245 28.8933 28.4436C25.781 30.2294 22.1738 31.25 18.332 31.25C14.4902 31.25 10.883 30.2294 7.77077 28.4436C7.42468 28.245 7.19419 27.8931 7.15042 27.4965C6.87026 24.9582 7.46771 22.3548 8.84847 20.1959Z" fill="#9EFF00"/>
<path d="M6.8025 18.7561C6.78243 18.787 6.76248 18.8179 6.74266 18.8489C5.13355 21.3648 4.39716 24.3611 4.62322 27.315C3.60981 27.1611 2.62653 26.9135 1.68274 26.5811L1.49115 26.5136C1.14163 26.3905 0.89741 26.0731 0.868016 25.7037L0.851903 25.5012C0.838726 25.3357 0.832031 25.1685 0.832031 25C0.832031 21.6419 3.48044 18.9024 6.8025 18.7561Z" fill="#9EFF00"/>
<path d="M32.0414 27.3149C32.2674 24.3617 31.5314 21.366 29.9229 18.8503C29.9028 18.8188 29.8825 18.7875 29.8622 18.7562C33.1839 18.9027 35.832 21.6421 35.832 25C35.832 25.1685 35.8253 25.3357 35.8122 25.5012L35.796 25.7037C35.7667 26.0731 35.5224 26.3905 35.1729 26.5136L34.9813 26.5811C34.0377 26.9134 33.0546 27.161 32.0414 27.3149Z" fill="#9EFF00"/>
</svg>
