<svg width="27" height="31" viewBox="0 0 27 31" fill="none" xmlns="http://www.w3.org/2000/svg">
<path d="M8.37729 30.8476H22.7998C25.5947 30.8476 26.9922 29.4366 26.9922 26.5873V10.1297C26.9922 7.29408 25.5947 5.86947 22.7998 5.86947H9.81547L12.0406 8.05388H22.6777C24.0887 8.05388 24.8078 8.8001 24.8078 10.1569V26.5602C24.8078 27.917 24.0887 28.6632 22.6912 28.6632H8.48583C7.08835 28.6632 6.3557 27.917 6.3557 26.5602V16.8729H4.17129V26.5873C4.17129 29.4366 5.58234 30.8476 8.37729 30.8476ZM10.4396 13.8745H20.4255C20.9003 13.8745 21.2666 13.5081 21.2666 13.0332C21.2666 12.572 20.9003 12.2056 20.4255 12.2056H10.4396C9.93758 12.2056 9.58482 12.572 9.58482 13.0332C9.58482 13.5081 9.93758 13.8745 10.4396 13.8745ZM10.4396 19.193H20.4255C20.9003 19.193 21.2666 18.8131 21.2666 18.3382C21.2666 17.8769 20.9003 17.5241 20.4255 17.5241H10.4396C9.93758 17.5241 9.58482 17.8769 9.58482 18.3382C9.58482 18.8131 9.93758 19.193 10.4396 19.193ZM10.4396 24.4979H20.4255C20.9003 24.4979 21.2666 24.1452 21.2666 23.6839C21.2666 23.2091 20.9003 22.8291 20.4255 22.8291H10.4396C9.93758 22.8291 9.58482 23.2091 9.58482 23.6839C9.58482 24.1452 9.93758 24.4979 10.4396 24.4979ZM0.250218 11.3644C0.23665 11.88 0.860766 12.0564 1.19996 11.7172L3.27582 9.64131L5.59591 15.3668C5.70445 15.6247 5.9758 15.7468 6.22002 15.6518L7.57679 15.1091C7.80744 15.0005 7.90241 14.7156 7.7803 14.4579L5.35168 8.82724L8.26874 8.70513C8.78432 8.67799 9.04211 8.18956 8.67577 7.7961L1.25423 0.171036C0.915036 -0.168157 0.385894 0.0217909 0.372327 0.523796L0.250218 11.3644Z" fill="#9EFF00"/>
</svg>
