<svg width="31" height="30" viewBox="0 0 31 30" fill="none" xmlns="http://www.w3.org/2000/svg">
<path d="M5.5 0C2.73858 0 0.5 2.23858 0.5 5V8.75C0.5 11.5114 2.73858 13.75 5.5 13.75H9.25C12.0114 13.75 14.25 11.5114 14.25 8.75V5C14.25 2.23858 12.0114 0 9.25 0H5.5Z" fill="#9EFF00"/>
<path d="M21.75 0C18.9886 0 16.75 2.23858 16.75 5V8.75C16.75 11.5114 18.9886 13.75 21.75 13.75H25.5C28.2614 13.75 30.5 11.5114 30.5 8.75V5C30.5 2.23858 28.2614 0 25.5 0H21.75Z" fill="#9EFF00"/>
<path d="M5.5 16.25C2.73858 16.25 0.5 18.4886 0.5 21.25V25C0.5 27.7614 2.73858 30 5.5 30H9.25C12.0114 30 14.25 27.7614 14.25 25V21.25C14.25 18.4886 12.0114 16.25 9.25 16.25H5.5Z" fill="#9EFF00"/>
<path d="M24.875 17.5C24.875 16.8096 24.3154 16.25 23.625 16.25C22.9346 16.25 22.375 16.8096 22.375 17.5V21.875H18C17.3096 21.875 16.75 22.4346 16.75 23.125C16.75 23.8154 17.3096 24.375 18 24.375H22.375V28.75C22.375 29.4404 22.9346 30 23.625 30C24.3154 30 24.875 29.4404 24.875 28.75V24.375H29.25C29.9404 24.375 30.5 23.8154 30.5 23.125C30.5 22.4346 29.9404 21.875 29.25 21.875H24.875V17.5Z" fill="#9EFF00"/>
</svg>
