<svg width="33" height="35" viewBox="0 0 33 35" fill="none" xmlns="http://www.w3.org/2000/svg">
<path d="M17.7174 3.51801C18.4805 3.51801 19.0611 2.93738 19.0611 2.17428C19.0611 1.42776 18.4805 0.847128 17.7174 0.847128H5.57401L8.21171 3.51801H17.7174ZM22.379 8.26255C23.1255 8.26255 23.7227 7.66534 23.7227 6.90223C23.7227 6.15571 23.1255 5.59167 22.379 5.59167H10.2024L12.8401 8.26255H22.379ZM26.941 12.9905C27.6876 12.9905 28.2683 12.3933 28.2683 11.6302C28.2683 10.8837 27.6876 10.3196 26.941 10.3196H14.8309L17.4685 12.9905H26.941ZM31.5529 15.0476H19.4593C20.4546 16.0595 20.9025 16.6733 20.9689 17.7185H31.5529C32.2994 17.7185 32.8966 17.1378 32.8966 16.3748C32.8966 15.6282 32.2994 15.0476 31.5529 15.0476ZM16.2077 31.4379L10.2522 17.5195L9.45591 18.8797L17.7174 19.3442C18.8289 19.4106 19.3598 18.2161 18.5635 17.4032L2.14002 0.614878C1.41009 -0.131642 0.282019 0.283092 0.282019 1.32822L0 24.686C0 25.8306 1.27738 26.2952 2.00731 25.4491L7.34907 19.5432L5.80626 19.1452L11.5628 33.3788C11.795 33.9428 12.3756 34.2082 12.8899 33.9761L15.7433 32.7981C16.2741 32.5991 16.4566 31.9853 16.2077 31.4379Z" fill="#9EFF00"/>
</svg>
