<svg width="36" height="30" viewBox="0 0 36 30" fill="none" xmlns="http://www.w3.org/2000/svg">
<path fill-rule="evenodd" clip-rule="evenodd" d="M0.5 11.3872V14.375C0.5 16.1009 1.89911 17.5 3.625 17.5H32.375C34.1009 17.5 35.5 16.1009 35.5 14.375V11.3872C35.5 10.1937 35.073 9.03947 34.2963 8.13326L28.8215 1.74604C27.8716 0.637814 26.4849 0 25.0252 0H10.9748C9.51513 0 8.12838 0.637813 7.17847 1.74604L1.70372 8.13326C0.926961 9.03947 0.5 10.1937 0.5 11.3872ZM10.9748 2.5C10.2449 2.5 9.55157 2.81891 9.07661 3.37302L4.46778 8.75H9.74306C11.4148 8.75 12.976 9.58551 13.9033 10.9765L14.1768 11.3868C14.6405 12.0822 15.4211 12.5 16.2569 12.5H19.7431C20.5789 12.5 21.3595 12.0822 21.8232 11.3868L22.0967 10.9765C23.024 9.5855 24.5852 8.75 26.2569 8.75H31.5322L26.9234 3.37302C26.4484 2.81891 25.7551 2.5 25.0252 2.5H10.9748Z" fill="#9EFF00"/>
<path d="M2.6875 20C1.47938 20 0.5 20.9794 0.5 22.1875V25C0.5 27.7614 2.73858 30 5.5 30H30.5C33.2614 30 35.5 27.7614 35.5 25V22.1875C35.5 20.9794 34.5206 20 33.3125 20H26.2569C24.5852 20 23.024 20.8355 22.0967 22.2265L21.8232 22.6368C21.3595 23.3322 20.5789 23.75 19.7431 23.75H16.2569C15.4211 23.75 14.6405 23.3322 14.1768 22.6367L13.9033 22.2265C12.976 20.8355 11.4148 20 9.74306 20H2.6875Z" fill="#9EFF00"/>
</svg>
