<svg width="31" height="28" viewBox="0 0 31 28" fill="none" xmlns="http://www.w3.org/2000/svg">
<path d="M4.625 0.25C2.20875 0.25 0.25 2.20875 0.25 4.625C0.25 7.04125 2.20875 9 4.625 9H25.875C28.2912 9 30.25 7.04125 30.25 4.625C30.25 2.20875 28.2912 0.25 25.875 0.25H4.625Z" fill="#9EFF00"/>
<path d="M1.5 12.75C0.809644 12.75 0.25 13.3096 0.25 14C0.25 14.6904 0.809644 15.25 1.5 15.25H29C29.6904 15.25 30.25 14.6904 30.25 14C30.25 13.3096 29.6904 12.75 29 12.75H1.5Z" fill="#9EFF00"/>
<path d="M0.25 20.25C0.25 19.5596 0.809644 19 1.5 19H29C29.6904 19 30.25 19.5596 30.25 20.25C30.25 20.9404 29.6904 21.5 29 21.5H1.5C0.809644 21.5 0.25 20.9404 0.25 20.25Z" fill="#9EFF00"/>
<path d="M1.5 25.25C0.809644 25.25 0.25 25.8096 0.25 26.5C0.25 27.1904 0.809644 27.75 1.5 27.75H29C29.6904 27.75 30.25 27.1904 30.25 26.5C30.25 25.8096 29.6904 25.25 29 25.25H1.5Z" fill="#9EFF00"/>
</svg>
