<svg width="35" height="35" viewBox="0 0 35 35" fill="none" xmlns="http://www.w3.org/2000/svg">
<path d="M3.72015 17.933C3.72015 16.4095 3.95452 14.9364 4.38979 13.5803L1.76144 12.4754C1.19224 14.1997 0.857422 16.0245 0.857422 17.933C0.857422 19.8247 1.19224 21.6663 1.77818 23.3905L4.38979 22.2857C3.95452 20.9297 3.72015 19.4564 3.72015 17.933ZM11.421 5.24327L10.3496 2.66515C7.03488 4.32252 4.30608 7.05132 2.64872 10.366L5.26032 11.4542C6.59961 8.79239 8.77595 6.61605 11.421 5.24327ZM17.9166 3.7031C19.44 3.7031 20.9133 3.93747 22.3027 4.38949L23.3741 1.77788C21.6499 1.19194 19.8083 0.857117 17.9166 0.857117C16.0248 0.857117 14.1666 1.19194 12.4423 1.77788L13.5472 4.38949C14.9199 3.93747 16.3931 3.7031 17.9166 3.7031ZM30.6063 11.4375L33.2011 10.366C31.5271 7.05132 28.7983 4.32252 25.4836 2.64842L24.4121 5.24327C27.0571 6.5993 29.2503 8.77565 30.6063 11.4375ZM32.1633 17.933C32.1633 19.4564 31.9289 20.9297 31.4936 22.3024L34.0884 23.4074C34.6744 21.683 35.0091 19.8247 35.0091 17.933C35.0091 16.0245 34.6744 14.183 34.0884 12.4587L31.4769 13.5636C31.9289 14.9364 32.1633 16.4095 32.1633 17.933ZM24.4121 30.606L25.4836 33.2175C28.815 31.5435 31.5439 28.8147 33.1844 25.5L30.623 24.4285C29.267 27.0904 27.074 29.25 24.4121 30.606ZM17.9333 32.163C16.3931 32.163 14.9199 31.9285 13.5472 31.4765L12.459 34.0881C14.1833 34.6741 16.0416 35.0088 17.9333 35.0088C19.825 35.0088 21.6666 34.6741 23.3741 34.1048L22.286 31.4933C20.9133 31.9285 19.4567 32.163 17.9333 32.163ZM5.26032 24.4285L2.66545 25.5C4.33956 28.8147 7.03488 31.5435 10.3496 33.2008L11.421 30.5893C8.77595 29.2333 6.59961 27.0737 5.26032 24.4285ZM17.8999 29.6183C24.4121 29.6183 29.6019 24.4285 29.5851 17.933C29.5684 11.4375 24.3786 6.24775 17.8831 6.24775C11.3876 6.24775 6.23131 11.4207 6.23131 17.933C6.23131 24.4453 11.4043 29.6183 17.8999 29.6183Z" fill="#9EFF00"/>
</svg>
