<svg width="84" height="81" viewBox="0 0 84 81" fill="none" xmlns="http://www.w3.org/2000/svg">
<path d="M1.68117 42.3675H78.2417V42.5658C78.2417 44.7567 76.4656 46.5327 74.2748 46.5327H5.64803C3.45719 46.5327 1.68117 44.7567 1.68117 42.5658V42.3675Z" stroke="black" stroke-width="1.98343"/>
<rect x="12.7885" y="2.69883" width="53.3543" height="35.7018" rx="3.57018" stroke="black" stroke-width="2.38012"/>
<line x1="19.5322" y1="31.8101" x2="24.8875" y2="31.8101" stroke="black" stroke-width="1.28053"/>
<line x1="24.4912" y1="29.2316" x2="30.4415" y2="29.2316" stroke="black" stroke-width="1.28053"/>
<line x1="32.2256" y1="29.2316" x2="37.9775" y2="29.2316" stroke="black" stroke-width="1.28053"/>
<line x1="24.8877" y1="25.0664" x2="29.8463" y2="25.0664" stroke="black" stroke-width="1.28053"/>
<line x1="27.8623" y1="27.2482" x2="34.2093" y2="27.2482" stroke="black" stroke-width="1.28053"/>
<line x1="37.9775" y1="27.2482" x2="47.6964" y2="27.2482" stroke="black" stroke-width="1.28053"/>
<line x1="48.8877" y1="27.2482" x2="52.6562" y2="27.2482" stroke="black" stroke-width="1.28053"/>
<path d="M32.2256 24.5166H36.5891" stroke="black" stroke-width="1.28053"/>
<line x1="38.5732" y1="24.6697" x2="45.7136" y2="24.6697" stroke="black" stroke-width="1.28053"/>
<line x1="47.6973" y1="24.6697" x2="51.8625" y2="24.6697" stroke="black" stroke-width="1.28053"/>
<line x1="24.8877" y1="22.8846" x2="30.4413" y2="22.8846" stroke="black" stroke-width="1.28053"/>
<line x1="24.4912" y1="15.1492" x2="29.8465" y2="15.1492" stroke="black" stroke-width="1.28053"/>
<line x1="24.8877" y1="17.331" x2="29.2512" y2="17.331" stroke="black" stroke-width="1.28053"/>
<line x1="31.0361" y1="17.331" x2="40.3583" y2="17.331" stroke="black" stroke-width="1.28053"/>
<line x1="41.5488" y1="17.331" x2="50.0776" y2="17.331" stroke="black" stroke-width="1.28053"/>
<line x1="50.6719" y1="17.331" x2="54.4404" y2="17.331" stroke="black" stroke-width="1.28053"/>
<line x1="31.6318" y1="15.1492" x2="37.1854" y2="15.1492" stroke="black" stroke-width="1.28053"/>
<line x1="39.168" y1="15.1492" x2="42.9365" y2="15.1492" stroke="black" stroke-width="1.28053"/>
<line x1="49.4824" y1="15.1492" x2="51.2675" y2="15.1492" stroke="black" stroke-width="1.28053"/>
<line x1="24.4912" y1="10.1906" x2="31.0365" y2="10.1906" stroke="black" stroke-width="1.28053"/>
<line x1="16.3584" y1="8.20721" x2="23.1021" y2="8.20721" stroke="black" stroke-width="1.28053"/>
<line x1="16.3584" y1="10.1906" x2="23.1021" y2="10.1906" stroke="black" stroke-width="1.28053"/>
<line x1="16.9541" y1="15.1492" x2="23.1027" y2="15.1492" stroke="black" stroke-width="1.28053"/>
<line x1="17.5488" y1="17.331" x2="23.1024" y2="17.331" stroke="black" stroke-width="1.28053"/>
<line x1="18.9375" y1="22.8846" x2="23.1027" y2="22.8846" stroke="black" stroke-width="1.28053"/>
<line x1="18.9375" y1="25.0664" x2="23.1027" y2="25.0664" stroke="black" stroke-width="1.28053"/>
<line x1="18.9375" y1="27.2482" x2="25.4828" y2="27.2482" stroke="black" stroke-width="1.28053"/>
<line x1="18.9375" y1="29.2316" x2="23.1027" y2="29.2316" stroke="black" stroke-width="1.28053"/>
<line x1="62.5723" y1="37.6073" x2="64.3574" y2="37.6073" stroke="black" stroke-width="0.793373"/>
<line x1="64.1592" y1="36.2189" x2="66.1426" y2="36.2189" stroke="black" stroke-width="0.793373"/>
<line x1="66.7383" y1="36.2189" x2="68.5234" y2="36.2189" stroke="black" stroke-width="0.793373"/>
<line x1="64.3584" y1="33.8387" x2="65.9451" y2="33.8387" stroke="black" stroke-width="0.793373"/>
<line x1="65.3496" y1="35.0288" x2="67.333" y2="35.0288" stroke="black" stroke-width="0.793373"/>
<line x1="68.5234" y1="35.0288" x2="71.6969" y2="35.0288" stroke="black" stroke-width="0.793373"/>
<line x1="72.0938" y1="35.0288" x2="73.2838" y2="35.0288" stroke="black" stroke-width="0.793373"/>
<path d="M66.7383 33.6404H68.1267" stroke="black" stroke-width="0.793373"/>
<line x1="68.7217" y1="33.6404" x2="71.1018" y2="33.6404" stroke="black" stroke-width="0.793373"/>
<line x1="71.6973" y1="33.6404" x2="73.0857" y2="33.6404" stroke="black" stroke-width="0.793373"/>
<line x1="64.3584" y1="32.6487" x2="66.1435" y2="32.6487" stroke="black" stroke-width="0.793373"/>
<line x1="64.1592" y1="28.2851" x2="65.9443" y2="28.2851" stroke="black" stroke-width="0.793373"/>
<line x1="64.3584" y1="29.4752" x2="65.7468" y2="29.4752" stroke="black" stroke-width="0.793373"/>
<line x1="66.3418" y1="29.4752" x2="69.3169" y2="29.4752" stroke="black" stroke-width="0.793373"/>
<line x1="69.7129" y1="29.4752" x2="72.4897" y2="29.4752" stroke="black" stroke-width="0.793373"/>
<line x1="72.6885" y1="29.4752" x2="73.8785" y2="29.4752" stroke="black" stroke-width="0.793373"/>
<line x1="66.54" y1="28.2851" x2="68.3251" y2="28.2851" stroke="black" stroke-width="0.793373"/>
<line x1="68.9199" y1="28.2851" x2="70.11" y2="28.2851" stroke="black" stroke-width="0.793373"/>
<line x1="72.292" y1="28.2851" x2="72.887" y2="28.2851" stroke="black" stroke-width="0.793373"/>
<line x1="64.1592" y1="25.5083" x2="66.341" y2="25.5083" stroke="black" stroke-width="0.793373"/>
<line x1="61.5811" y1="24.3182" x2="63.7628" y2="24.3182" stroke="black" stroke-width="0.793373"/>
<line x1="61.5811" y1="25.5083" x2="63.7628" y2="25.5083" stroke="black" stroke-width="0.793373"/>
<line x1="61.7793" y1="28.2851" x2="63.7627" y2="28.2851" stroke="black" stroke-width="0.793373"/>
<line x1="61.9775" y1="29.4752" x2="63.7626" y2="29.4752" stroke="black" stroke-width="0.793373"/>
<line x1="62.374" y1="32.6487" x2="63.7624" y2="32.6487" stroke="black" stroke-width="0.793373"/>
<line x1="62.374" y1="33.8387" x2="63.7624" y2="33.8387" stroke="black" stroke-width="0.793373"/>
<line x1="62.374" y1="35.0288" x2="64.5558" y2="35.0288" stroke="black" stroke-width="0.793373"/>
<line x1="62.374" y1="36.2189" x2="63.7624" y2="36.2189" stroke="black" stroke-width="0.793373"/>
<line x1="59.2012" y1="18.1696" x2="79.2338" y2="18.1696" stroke="black" stroke-width="1.98343"/>
<line x1="57.8125" y1="21.1447" x2="80.8203" y2="21.1447" stroke="black" stroke-width="1.98343"/>
<line x1="60.0919" y1="21.6994" x2="61.6786" y2="41.1371" stroke="black" stroke-width="0.991716"/>
<line y1="-0.495858" x2="19.5023" y2="-0.495858" transform="matrix(-0.081362 0.996685 0.996685 0.081362 78.4404 21.9381)" stroke="black" stroke-width="0.991716"/>
<path d="M31.7507 52.4277V53.732H29.9799V59.1111H28.3519V53.732H26.5811V52.4277H31.7507ZM38.3562 52.4277V59.1111H36.7282V56.3597H34.1957V59.1111H32.5677V52.4277H34.1957V55.0459H36.7282V52.4277H38.3562ZM41.1594 53.732V55.084H43.3396V56.3407H41.1594V57.8068H43.6252V59.1111H39.5314V52.4277H43.6252V53.732H41.1594ZM48.2991 52.4277V56.4263C48.2991 56.8262 48.3975 57.134 48.5943 57.3498C48.791 57.5656 49.0798 57.6735 49.4606 57.6735C49.8415 57.6735 50.1334 57.5656 50.3365 57.3498C50.5396 57.134 50.6412 56.8262 50.6412 56.4263V52.4277H52.2692V56.4168C52.2692 57.0134 52.1422 57.518 51.8884 57.9306C51.6345 58.3431 51.2917 58.6541 50.8601 58.8636C50.4349 59.073 49.9589 59.1778 49.4321 59.1778C48.9053 59.1778 48.4324 59.0762 48.0135 58.8731C47.601 58.6637 47.2741 58.3526 47.0329 57.9401C46.7917 57.5212 46.6711 57.0134 46.6711 56.4168V52.4277H48.2991ZM55.0404 52.4277V59.1111H53.4124V52.4277H55.0404ZM22.8781 69.7599C22.8781 69.0998 23.0209 68.5127 23.3065 67.9986C23.5921 67.4782 23.9888 67.0751 24.4966 66.7895C25.0107 66.4976 25.5914 66.3516 26.2388 66.3516C27.0322 66.3516 27.7113 66.561 28.2762 66.9799C28.8411 67.3988 29.2187 67.9701 29.4091 68.6936H27.6193C27.486 68.4143 27.2956 68.2017 27.0481 68.0557C26.8069 67.9098 26.5308 67.8368 26.2198 67.8368C25.7184 67.8368 25.3122 68.0113 25.0012 68.3604C24.6902 68.7095 24.5347 69.176 24.5347 69.7599C24.5347 70.3438 24.6902 70.8103 25.0012 71.1594C25.3122 71.5085 25.7184 71.683 26.2198 71.683C26.5308 71.683 26.8069 71.6101 27.0481 71.4641C27.2956 71.3181 27.486 71.1055 27.6193 70.8262H29.4091C29.2187 71.5498 28.8411 72.121 28.2762 72.5399C27.7113 72.9524 27.0322 73.1587 26.2388 73.1587C25.5914 73.1587 25.0107 73.0159 24.4966 72.7303C23.9888 72.4383 23.5921 72.0353 23.3065 71.5212C23.0209 71.0071 22.8781 70.42 22.8781 69.7599ZM33.5669 73.1778C32.9386 73.1778 32.361 73.0318 31.8342 72.7398C31.3137 72.4479 30.898 72.0416 30.587 71.5212C30.2823 70.9944 30.13 70.4041 30.13 69.7504C30.13 69.0966 30.2823 68.5096 30.587 67.9891C30.898 67.4686 31.3137 67.0624 31.8342 66.7705C32.361 66.4785 32.9386 66.3325 33.5669 66.3325C34.1953 66.3325 34.7697 66.4785 35.2901 66.7705C35.8169 67.0624 36.2295 67.4686 36.5278 67.9891C36.8324 68.5096 36.9848 69.0966 36.9848 69.7504C36.9848 70.4041 36.8324 70.9944 36.5278 71.5212C36.2231 72.0416 35.8106 72.4479 35.2901 72.7398C34.7697 73.0318 34.1953 73.1778 33.5669 73.1778ZM33.5669 71.6926C34.1001 71.6926 34.5253 71.5148 34.8426 71.1594C35.1663 70.804 35.3282 70.3343 35.3282 69.7504C35.3282 69.1601 35.1663 68.6904 34.8426 68.3414C34.5253 67.9859 34.1001 67.8082 33.5669 67.8082C33.0274 67.8082 32.5958 67.9828 32.2721 68.3318C31.9548 68.6809 31.7961 69.1538 31.7961 69.7504C31.7961 70.3407 31.9548 70.8135 32.2721 71.1689C32.5958 71.518 33.0274 71.6926 33.5669 71.6926ZM40.3943 66.4277C41.0989 66.4277 41.7145 66.5674 42.2413 66.8466C42.7681 67.1259 43.1743 67.5194 43.4599 68.0272C43.7519 68.5286 43.8979 69.1093 43.8979 69.7694C43.8979 70.4232 43.7519 71.0039 43.4599 71.5117C43.1743 72.0194 42.7649 72.4129 42.2318 72.6922C41.705 72.9715 41.0925 73.1111 40.3943 73.1111H37.8905V66.4277H40.3943ZM40.2896 71.7021C40.9053 71.7021 41.3845 71.5339 41.7272 71.1975C42.07 70.8611 42.2413 70.3851 42.2413 69.7694C42.2413 69.1538 42.07 68.6746 41.7272 68.3318C41.3845 67.9891 40.9053 67.8177 40.2896 67.8177H39.5185V71.7021H40.2896ZM46.4357 67.732V69.084H48.6159V70.3407H46.4357V71.8068H48.9015V73.1111H44.8077V66.4277H48.9015V67.732H46.4357ZM53.3667 73.1111L51.9768 70.5882H51.5864V73.1111H49.9584V66.4277H52.6908C53.2176 66.4277 53.665 66.5198 54.0332 66.7038C54.4076 66.8879 54.6869 67.1418 54.871 67.4655C55.055 67.7828 55.1471 68.1383 55.1471 68.5318C55.1471 68.9761 55.0201 69.3727 54.7663 69.7218C54.5187 70.0709 54.1506 70.3184 53.6619 70.4644L55.2042 73.1111H53.3667ZM51.5864 69.4362H52.5956C52.8939 69.4362 53.116 69.3632 53.262 69.2172C53.4143 69.0713 53.4905 68.865 53.4905 68.5984C53.4905 68.3445 53.4143 68.1446 53.262 67.9986C53.116 67.8526 52.8939 67.7796 52.5956 67.7796H51.5864V69.4362ZM58.5872 73.1778C58.0985 73.1778 57.6606 73.0984 57.2734 72.9397C56.8862 72.7811 56.5752 72.5462 56.3404 72.2352C56.1119 71.9242 55.9913 71.5498 55.9786 71.1118H57.7113C57.7367 71.3593 57.8224 71.5498 57.9684 71.683C58.1144 71.81 58.3048 71.8735 58.5396 71.8735C58.7808 71.8735 58.9712 71.8195 59.1109 71.7116C59.2505 71.5974 59.3203 71.4419 59.3203 71.2451C59.3203 71.0801 59.2632 70.9436 59.1489 70.8357C59.041 70.7278 58.9046 70.639 58.7396 70.5691C58.5809 70.4993 58.3524 70.42 58.0541 70.3311C57.6225 70.1978 57.2702 70.0646 56.9973 69.9313C56.7244 69.798 56.4896 69.6012 56.2928 69.341C56.096 69.0808 55.9977 68.7412 55.9977 68.3223C55.9977 67.7003 56.223 67.2148 56.6736 66.8657C57.1243 66.5103 57.7113 66.3325 58.4349 66.3325C59.1712 66.3325 59.7646 66.5103 60.2152 66.8657C60.6659 67.2148 60.9071 67.7035 60.9388 68.3318H59.1775C59.1648 68.116 59.0855 67.9478 58.9395 67.8273C58.7935 67.7003 58.6063 67.6368 58.3778 67.6368C58.181 67.6368 58.0224 67.6908 57.9018 67.7987C57.7812 67.9002 57.7209 68.0494 57.7209 68.2462C57.7209 68.4619 57.8224 68.6301 58.0255 68.7507C58.2286 68.8713 58.546 69.0014 58.9776 69.1411C59.4092 69.2871 59.7583 69.4267 60.0248 69.56C60.2977 69.6933 60.5326 69.8868 60.7293 70.1407C60.9261 70.3946 61.0245 70.7215 61.0245 71.1213C61.0245 71.5022 60.9261 71.8481 60.7293 72.1591C60.5389 72.4701 60.2597 72.7176 59.8915 72.9017C59.5234 73.0857 59.0886 73.1778 58.5872 73.1778Z" fill="black"/>
</svg>
