<svg width="417" height="312" viewBox="0 0 417 312" fill="none" xmlns="http://www.w3.org/2000/svg">
<path d="M58.216 259.304V265.88H49.288V293H41.08V265.88H32.152V259.304H58.216ZM91.5194 259.304V293H83.3114V279.128H70.5434V293H62.3354V259.304H70.5434V272.504H83.3114V259.304H91.5194ZM105.653 265.88V272.696H116.645V279.032H105.653V286.424H118.085V293H97.4448V259.304H118.085V265.88H105.653ZM190.365 276.104C190.365 272.776 191.085 269.816 192.525 267.224C193.965 264.6 195.965 262.568 198.525 261.128C201.117 259.656 204.045 258.92 207.309 258.92C211.309 258.92 214.733 259.976 217.581 262.088C220.429 264.2 222.333 267.08 223.293 270.728H214.269C213.597 269.32 212.637 268.248 211.389 267.512C210.173 266.776 208.781 266.408 207.213 266.408C204.685 266.408 202.637 267.288 201.069 269.048C199.501 270.808 198.717 273.16 198.717 276.104C198.717 279.048 199.501 281.4 201.069 283.16C202.637 284.92 204.685 285.8 207.213 285.8C208.781 285.8 210.173 285.432 211.389 284.696C212.637 283.96 213.597 282.888 214.269 281.48H223.293C222.333 285.128 220.429 288.008 217.581 290.12C214.733 292.2 211.309 293.24 207.309 293.24C204.045 293.24 201.117 292.52 198.525 291.08C195.965 289.608 193.965 287.576 192.525 284.984C191.085 282.392 190.365 279.432 190.365 276.104ZM244.256 293.336C241.088 293.336 238.176 292.6 235.52 291.128C232.896 289.656 230.8 287.608 229.232 284.984C227.696 282.328 226.928 279.352 226.928 276.056C226.928 272.76 227.696 269.8 229.232 267.176C230.8 264.552 232.896 262.504 235.52 261.032C238.176 259.56 241.088 258.824 244.256 258.824C247.424 258.824 250.32 259.56 252.944 261.032C255.6 262.504 257.68 264.552 259.184 267.176C260.72 269.8 261.488 272.76 261.488 276.056C261.488 279.352 260.72 282.328 259.184 284.984C257.648 287.608 255.568 289.656 252.944 291.128C250.32 292.6 247.424 293.336 244.256 293.336ZM244.256 285.848C246.944 285.848 249.088 284.952 250.688 283.16C252.32 281.368 253.136 279 253.136 276.056C253.136 273.08 252.32 270.712 250.688 268.952C249.088 267.16 246.944 266.264 244.256 266.264C241.536 266.264 239.36 267.144 237.728 268.904C236.128 270.664 235.328 273.048 235.328 276.056C235.328 279.032 236.128 281.416 237.728 283.208C239.36 284.968 241.536 285.848 244.256 285.848ZM278.678 259.304C282.23 259.304 285.334 260.008 287.99 261.416C290.646 262.824 292.694 264.808 294.134 267.368C295.606 269.896 296.342 272.824 296.342 276.152C296.342 279.448 295.606 282.376 294.134 284.936C292.694 287.496 290.63 289.48 287.942 290.888C285.286 292.296 282.198 293 278.678 293H266.054V259.304H278.678ZM278.15 285.896C281.254 285.896 283.67 285.048 285.398 283.352C287.126 281.656 287.99 279.256 287.99 276.152C287.99 273.048 287.126 270.632 285.398 268.904C283.67 267.176 281.254 266.312 278.15 266.312H274.262V285.896H278.15ZM309.137 265.88V272.696H320.129V279.032H309.137V286.424H321.569V293H300.929V259.304H321.569V265.88H309.137ZM344.082 293L337.074 280.28H335.106V293H326.898V259.304H340.674C343.33 259.304 345.586 259.768 347.442 260.696C349.33 261.624 350.738 262.904 351.666 264.536C352.594 266.136 353.058 267.928 353.058 269.912C353.058 272.152 352.418 274.152 351.138 275.912C349.89 277.672 348.034 278.92 345.57 279.656L353.346 293H344.082ZM335.106 274.472H340.194C341.698 274.472 342.818 274.104 343.554 273.368C344.322 272.632 344.706 271.592 344.706 270.248C344.706 268.968 344.322 267.96 343.554 267.224C342.818 266.488 341.698 266.12 340.194 266.12H335.106V274.472ZM370.402 293.336C367.938 293.336 365.73 292.936 363.778 292.136C361.826 291.336 360.258 290.152 359.074 288.584C357.922 287.016 357.314 285.128 357.25 282.92H365.986C366.114 284.168 366.546 285.128 367.282 285.8C368.018 286.44 368.978 286.76 370.162 286.76C371.378 286.76 372.338 286.488 373.042 285.944C373.746 285.368 374.098 284.584 374.098 283.592C374.098 282.76 373.81 282.072 373.234 281.528C372.69 280.984 372.002 280.536 371.17 280.184C370.37 279.832 369.218 279.432 367.714 278.984C365.538 278.312 363.762 277.64 362.386 276.968C361.01 276.296 359.826 275.304 358.834 273.992C357.842 272.68 357.346 270.968 357.346 268.856C357.346 265.72 358.482 263.272 360.754 261.512C363.026 259.72 365.986 258.824 369.634 258.824C373.346 258.824 376.338 259.72 378.61 261.512C380.882 263.272 382.098 265.736 382.258 268.904H373.378C373.314 267.816 372.914 266.968 372.178 266.36C371.442 265.72 370.498 265.4 369.346 265.4C368.354 265.4 367.554 265.672 366.946 266.216C366.338 266.728 366.034 267.48 366.034 268.472C366.034 269.56 366.546 270.408 367.57 271.016C368.594 271.624 370.194 272.28 372.37 272.984C374.546 273.72 376.306 274.424 377.65 275.096C379.026 275.768 380.21 276.744 381.202 278.024C382.194 279.304 382.69 280.952 382.69 282.968C382.69 284.888 382.194 286.632 381.202 288.2C380.242 289.768 378.834 291.016 376.978 291.944C375.122 292.872 372.93 293.336 370.402 293.336Z" fill="white"/>
<path d="M141.649 259.304V279.464C141.649 281.48 142.145 283.032 143.137 284.12C144.129 285.208 145.585 285.752 147.505 285.752C149.425 285.752 150.897 285.208 151.921 284.12C152.945 283.032 153.457 281.48 153.457 279.464V259.304H161.665V279.416C161.665 282.424 161.025 284.968 159.745 287.048C158.465 289.128 156.737 290.696 154.561 291.752C152.417 292.808 150.017 293.336 147.361 293.336C144.705 293.336 142.321 292.824 140.209 291.8C138.129 290.744 136.481 289.176 135.265 287.096C134.049 284.984 133.441 282.424 133.441 279.416V259.304H141.649ZM175.637 259.304V293H167.429V259.304H175.637Z" fill="#9EFF00"/>
<path d="M5 206H391V207C391 218.046 382.046 227 371 227H25C13.9543 227 5 218.046 5 207V206Z" stroke="#FBFCFC" stroke-width="10"/>
<rect x="61" y="6" width="269" height="180" rx="18" stroke="#FBFCFC" stroke-width="12"/>
<line x1="95" y1="152.772" x2="122" y2="152.772" stroke="#9EFF00" stroke-width="6.45614"/>
<line x1="120" y1="139.772" x2="150" y2="139.772" stroke="#9EFF00" stroke-width="6.45614"/>
<line x1="159" y1="139.772" x2="188" y2="139.772" stroke="#9EFF00" stroke-width="6.45614"/>
<line x1="122" y1="118.772" x2="147" y2="118.772" stroke="#9EFF00" stroke-width="6.45614"/>
<line x1="137" y1="129.772" x2="169" y2="129.772" stroke="#9EFF00" stroke-width="6.45614"/>
<line x1="188" y1="129.772" x2="237" y2="129.772" stroke="#9EFF00" stroke-width="6.45614"/>
<line x1="243" y1="129.772" x2="262" y2="129.772" stroke="#9EFF00" stroke-width="6.45614"/>
<path d="M159 116H181" stroke="#9EFF00" stroke-width="6.45614"/>
<line x1="191" y1="116.772" x2="227" y2="116.772" stroke="#9EFF00" stroke-width="6.45614"/>
<line x1="237" y1="116.772" x2="258" y2="116.772" stroke="#9EFF00" stroke-width="6.45614"/>
<line x1="122" y1="107.772" x2="150" y2="107.772" stroke="#9EFF00" stroke-width="6.45614"/>
<line x1="120" y1="68.7719" x2="147" y2="68.7719" stroke="#9EFF00" stroke-width="6.45614"/>
<line x1="122" y1="79.7719" x2="144" y2="79.7719" stroke="#9EFF00" stroke-width="6.45614"/>
<line x1="153" y1="79.7719" x2="200" y2="79.7719" stroke="#9EFF00" stroke-width="6.45614"/>
<line x1="206" y1="79.7719" x2="249" y2="79.7719" stroke="#9EFF00" stroke-width="6.45614"/>
<line x1="252" y1="79.7719" x2="271" y2="79.7719" stroke="#9EFF00" stroke-width="6.45614"/>
<line x1="156" y1="68.7719" x2="184" y2="68.7719" stroke="#9EFF00" stroke-width="6.45614"/>
<line x1="194" y1="68.7719" x2="213" y2="68.7719" stroke="#9EFF00" stroke-width="6.45614"/>
<line x1="246" y1="68.7719" x2="255" y2="68.7719" stroke="#9EFF00" stroke-width="6.45614"/>
<line x1="120" y1="43.7719" x2="153" y2="43.7719" stroke="#9EFF00" stroke-width="6.45614"/>
<line x1="79" y1="33.7719" x2="113" y2="33.7719" stroke="#9EFF00" stroke-width="6.45614"/>
<line x1="79" y1="43.7719" x2="113" y2="43.7719" stroke="#9EFF00" stroke-width="6.45614"/>
<line x1="82" y1="68.7719" x2="113" y2="68.7719" stroke="#9EFF00" stroke-width="6.45614"/>
<line x1="85" y1="79.7719" x2="113" y2="79.7719" stroke="#9EFF00" stroke-width="6.45614"/>
<line x1="92" y1="107.772" x2="113" y2="107.772" stroke="#9EFF00" stroke-width="6.45614"/>
<line x1="92" y1="118.772" x2="113" y2="118.772" stroke="#9EFF00" stroke-width="6.45614"/>
<line x1="92" y1="129.772" x2="125" y2="129.772" stroke="#9EFF00" stroke-width="6.45614"/>
<line x1="92" y1="139.772" x2="113" y2="139.772" stroke="#9EFF00" stroke-width="6.45614"/>
<line x1="312" y1="182" x2="321" y2="182" stroke="#9EFF00" stroke-width="4"/>
<line x1="320" y1="175" x2="330" y2="175" stroke="#9EFF00" stroke-width="4"/>
<line x1="333" y1="175" x2="342" y2="175" stroke="#9EFF00" stroke-width="4"/>
<line x1="321" y1="163" x2="329" y2="163" stroke="#9EFF00" stroke-width="4"/>
<line x1="326" y1="169" x2="336" y2="169" stroke="#9EFF00" stroke-width="4"/>
<line x1="342" y1="169" x2="358" y2="169" stroke="#9EFF00" stroke-width="4"/>
<line x1="360" y1="169" x2="366" y2="169" stroke="#9EFF00" stroke-width="4"/>
<path d="M333 162H340" stroke="#9EFF00" stroke-width="4"/>
<line x1="343" y1="162" x2="355" y2="162" stroke="#9EFF00" stroke-width="4"/>
<line x1="358" y1="162" x2="365" y2="162" stroke="#9EFF00" stroke-width="4"/>
<line x1="321" y1="157" x2="330" y2="157" stroke="#9EFF00" stroke-width="4"/>
<line x1="320" y1="135" x2="329" y2="135" stroke="#9EFF00" stroke-width="4"/>
<line x1="321" y1="141" x2="328" y2="141" stroke="#9EFF00" stroke-width="4"/>
<line x1="331" y1="141" x2="346" y2="141" stroke="#9EFF00" stroke-width="4"/>
<line x1="348" y1="141" x2="362" y2="141" stroke="#9EFF00" stroke-width="4"/>
<line x1="363" y1="141" x2="369" y2="141" stroke="#9EFF00" stroke-width="4"/>
<line x1="332" y1="135" x2="341" y2="135" stroke="#9EFF00" stroke-width="4"/>
<line x1="344" y1="135" x2="350" y2="135" stroke="#9EFF00" stroke-width="4"/>
<line x1="361" y1="135" x2="364" y2="135" stroke="#9EFF00" stroke-width="4"/>
<line x1="320" y1="121" x2="331" y2="121" stroke="#9EFF00" stroke-width="4"/>
<line x1="307" y1="115" x2="318" y2="115" stroke="#9EFF00" stroke-width="4"/>
<line x1="307" y1="121" x2="318" y2="121" stroke="#9EFF00" stroke-width="4"/>
<line x1="308" y1="135" x2="318" y2="135" stroke="#9EFF00" stroke-width="4"/>
<line x1="309" y1="141" x2="318" y2="141" stroke="#9EFF00" stroke-width="4"/>
<line x1="311" y1="157" x2="318" y2="157" stroke="#9EFF00" stroke-width="4"/>
<line x1="311" y1="163" x2="318" y2="163" stroke="#9EFF00" stroke-width="4"/>
<line x1="311" y1="169" x2="322" y2="169" stroke="#9EFF00" stroke-width="4"/>
<line x1="311" y1="175" x2="318" y2="175" stroke="#9EFF00" stroke-width="4"/>
<line x1="295" y1="84" x2="396" y2="84" stroke="white" stroke-width="10"/>
<line x1="288" y1="99" x2="404" y2="99" stroke="white" stroke-width="10"/>
<line x1="299.492" y1="101.797" x2="307.492" y2="199.797" stroke="white" stroke-width="5"/>
<line y1="-2.5" x2="98.326" y2="-2.5" transform="matrix(-0.081362 0.996685 0.996685 0.081362 392 103)" stroke="white" stroke-width="5"/>
</svg>
