<svg width="28" height="35" viewBox="0 0 28 35" fill="none" xmlns="http://www.w3.org/2000/svg">
<path d="M27.8706 20.5155V7.70867C27.8706 5.95085 27.1172 5.38166 25.6942 4.79572C23.7187 3.99215 17.3404 1.56469 15.365 0.995501C14.9129 0.878313 14.4274 0.744385 13.9587 0.744385C13.49 0.744385 13.0045 0.84483 12.5692 0.995501C10.577 1.68188 4.19866 3.97541 2.22322 4.79572C0.816964 5.39841 0.046875 5.95085 0.046875 7.70867V20.5155C0.046875 26.6261 3.31139 28.8861 12.837 34.2265C13.2723 34.461 13.6908 34.5614 13.9587 34.5614C14.2266 34.5614 14.6619 34.461 15.0803 34.2265C24.5893 28.8694 27.8706 26.6261 27.8706 20.5155ZM13.6071 31.4643C13.4062 31.414 13.1886 31.2968 12.9208 31.1294C5.20313 26.4253 2.7087 25.0691 2.7087 19.8961V8.22765C2.7087 7.65845 2.80915 7.42408 3.2779 7.25666C5.87276 6.36938 10.7612 4.59484 13.2891 3.59036C13.423 3.54014 13.5234 3.50666 13.6071 3.48992V31.4643Z" fill="#9EFF00"/>
</svg>
