<svg width="31" height="40" viewBox="0 0 31 40" fill="none" xmlns="http://www.w3.org/2000/svg">
<path d="M0.713867 34.4866C0.713867 35.7924 0.998466 36.5793 2.23731 37.1819C5.10002 38.4207 9.05092 39.2411 13.7886 39.2411C18.4762 39.2411 23.7496 38.538 27.533 36.6964C29.542 35.7421 30.0274 34.8549 30.0274 32.779V7.08147C30.0274 4.36941 28.8222 3.13059 26.2106 3.13059H24.6369V2.46094C24.6369 0.803571 23.7999 0 22.3266 0C21.8243 0 21.2217 0.117187 20.5019 0.351563C15.446 2.00893 10.8255 3.06361 4.89914 3.06361H3.55985C1.75181 3.06361 0.713867 4.1183 0.713867 5.75893V34.4866ZM6.65695 15.7533V10.0949C6.65695 9.86049 6.82435 9.6596 7.05874 9.64286C10.9594 9.49219 14.4416 8.8058 18.0074 7.5C18.2083 7.4163 18.5599 7.5 18.5599 7.90179V13.8114C18.5599 13.9621 18.4762 14.1127 18.3254 14.1629C15.2116 15.4353 11.1101 16.1551 7.05874 16.1551C6.8411 16.1551 6.65695 16.0211 6.65695 15.7533ZM7.51074 36.3783C14.09 36.1941 20.2004 34.3527 23.5152 31.8247C24.2853 31.2389 24.6369 30.6361 24.6369 29.163V5.82589H26.2273C26.9639 5.82589 27.3321 6.22769 27.3321 7.08147V32.5949C27.3321 33.5993 27.1814 33.9676 26.2273 34.3861C22.8957 35.8426 18.2083 36.7801 13.7886 36.7801C11.6793 36.7801 9.68708 36.663 7.51074 36.3783Z" fill="#9EFF00"/>
</svg>
