<svg width="29" height="39" viewBox="0 0 29 39" fill="none" xmlns="http://www.w3.org/2000/svg">
<path d="M5.35114 38.1462H24.0509C26.8299 38.1462 28.6882 36.3717 28.6882 33.7266V4.86497C28.6882 2.21989 26.8299 0.428589 24.0509 0.428589H5.35114C2.57212 0.428589 0.713867 2.21989 0.713867 4.86497V33.7266C0.713867 36.3717 2.57212 38.1462 5.35114 38.1462ZM5.68597 35.4509C4.24624 35.4509 3.40918 34.6473 3.40918 33.2746V5.31699C3.40918 3.94422 4.24624 3.1239 5.68597 3.1239H23.7162C25.1392 3.1239 25.9929 3.94422 25.9929 5.31699V33.2746C25.9929 34.6473 25.1392 35.4509 23.7162 35.4509H5.68597ZM8.28084 15.8472H21.138C22.0253 15.8472 22.6279 15.2612 22.6279 14.3237V10.7076C22.6279 9.7701 22.0253 9.18417 21.138 9.18417H8.28084C7.39355 9.18417 6.79088 9.7701 6.79088 10.7076V14.3237C6.79088 15.2612 7.39355 15.8472 8.28084 15.8472ZM8.28084 29.3572H21.138C22.0253 29.3572 22.6279 28.7544 22.6279 27.8337V24.2009C22.6279 23.2802 22.0253 22.6774 21.138 22.6774H8.28084C7.39355 22.6774 6.79088 23.2802 6.79088 24.2009V27.8337C6.79088 28.7544 7.39355 29.3572 8.28084 29.3572Z" fill="#9EFF00"/>
</svg>
