<svg width="31" height="36" viewBox="0 0 31 36" fill="none" xmlns="http://www.w3.org/2000/svg">
<path d="M30.668 8.625C30.668 13.1123 23.9522 16.75 15.668 16.75C7.3837 16.75 0.667969 13.1123 0.667969 8.625C0.667969 4.13769 7.3837 0.5 15.668 0.5C23.9522 0.5 30.668 4.13769 30.668 8.625Z" fill="#9EFF00"/>
<path d="M15.668 19.25C20.1433 19.25 24.3188 18.2728 27.4653 16.5685C28.6153 15.9456 29.7093 15.1739 30.6258 14.2612C30.6537 14.4638 30.668 14.6685 30.668 14.875C30.668 19.3623 23.9522 23 15.668 23C7.3837 23 0.667969 19.3623 0.667969 14.875C0.667969 14.6685 0.682188 14.4638 0.710125 14.2612C1.62668 15.1739 2.72067 15.9456 3.87066 16.5685C7.01712 18.2728 11.1927 19.25 15.668 19.25Z" fill="#9EFF00"/>
<path d="M15.668 25.5C20.1433 25.5 24.3188 24.5228 27.4653 22.8185C28.6153 22.1956 29.7093 21.4239 30.6258 20.5112C30.6537 20.7138 30.668 20.9185 30.668 21.125C30.668 25.6123 23.9522 29.25 15.668 29.25C7.3837 29.25 0.667969 25.6123 0.667969 21.125C0.667969 20.9185 0.682188 20.7138 0.710125 20.5112C1.62668 21.4239 2.72067 22.1956 3.87066 22.8185C7.01712 24.5228 11.1927 25.5 15.668 25.5Z" fill="#9EFF00"/>
<path d="M15.668 31.75C20.1433 31.75 24.3188 30.7728 27.4653 29.0685C28.6153 28.4456 29.7093 27.6739 30.6258 26.7612C30.6537 26.9638 30.668 27.1685 30.668 27.375C30.668 31.8623 23.9522 35.5 15.668 35.5C7.3837 35.5 0.667969 31.8623 0.667969 27.375C0.667969 27.1685 0.682188 26.9638 0.710125 26.7612C1.62668 27.6739 2.72067 28.4456 3.87066 29.0685C7.01712 30.7728 11.1927 31.75 15.668 31.75Z" fill="#9EFF00"/>
</svg>
