<svg width="31" height="34" viewBox="0 0 31 34" fill="none" xmlns="http://www.w3.org/2000/svg">
<path d="M26.375 0.75C24.6491 0.75 23.25 2.14911 23.25 3.875V30.125C23.25 31.8509 24.6491 33.25 26.375 33.25H27.625C29.3509 33.25 30.75 31.8509 30.75 30.125V3.875C30.75 2.14911 29.3509 0.75 27.625 0.75H26.375Z" fill="#9EFF00"/>
<path d="M12 11.375C12 9.64911 13.3991 8.25 15.125 8.25H16.375C18.1009 8.25 19.5 9.64911 19.5 11.375V30.125C19.5 31.8509 18.1009 33.25 16.375 33.25H15.125C13.3991 33.25 12 31.8509 12 30.125V11.375Z" fill="#9EFF00"/>
<path d="M0.75 18.875C0.75 17.1491 2.14911 15.75 3.875 15.75H5.125C6.85089 15.75 8.25 17.1491 8.25 18.875V30.125C8.25 31.8509 6.85089 33.25 5.125 33.25H3.875C2.14911 33.25 0.75 31.8509 0.75 30.125V18.875Z" fill="#9EFF00"/>
</svg>
