<svg width="39" height="40" viewBox="0 0 39 40" fill="none" xmlns="http://www.w3.org/2000/svg">
<path d="M2.059 37.9079C4.82127 40.6702 8.92284 40.7706 11.6349 37.5396C13.6271 35.1456 18.6661 27.0262 22.9853 22.7069C25.8649 19.8275 29.0456 21.3509 32.2431 20.0452L29.3971 9.66568C29.0456 8.37662 29.5646 7.30519 31.0546 6.90341L37.3324 5.22931C37.1316 4.64336 36.5791 3.83979 35.8927 3.13666C32.0256 -0.830969 25.6304 -0.881192 21.8134 2.73488C16.2387 8.04181 20.4741 13.6501 16.8079 17.3163C12.1873 21.9202 5.82574 25.2683 2.4273 28.3152C-0.753501 31.1445 -0.736759 35.1121 2.059 37.9079ZM6.79673 35.2293C5.65833 35.2293 4.72083 34.3085 4.72083 33.1702C4.72083 32.0318 5.65833 31.0942 6.79673 31.0942C7.93512 31.0942 8.85587 32.0318 8.85587 33.1702C8.85587 34.3085 7.93512 35.2293 6.79673 35.2293ZM22.5333 12.8632C22.165 12.9637 21.847 12.7795 21.7297 12.3777C21.6293 12.0764 21.8301 11.7081 22.1817 11.6076L26.0991 10.553C26.4173 10.4692 26.7856 10.6701 26.8693 11.0217C26.9864 11.4067 26.7689 11.7416 26.4173 11.842L22.5333 12.8632ZM23.0356 14.8553C22.6673 14.9559 22.3491 14.7718 22.2153 14.3699C22.1149 14.0686 22.3324 13.7003 22.684 13.6166L26.5847 12.5451C26.9027 12.4782 27.271 12.6623 27.3714 13.0139C27.4887 13.3989 27.2543 13.7338 26.9027 13.8342L23.0356 14.8553ZM23.521 16.8476C23.1694 16.9481 22.8011 16.7639 22.7343 16.3621C22.6506 16.0273 22.8347 15.7092 23.203 15.6088L27.0869 14.5708C27.4551 14.4536 27.8067 14.6712 27.8737 15.0061C27.9574 15.3409 27.7566 15.7092 27.4384 15.7929L23.521 16.8476ZM34.0847 19.2416C34.7376 18.8565 35.4071 18.3543 36.0936 17.7013C38.203 15.7929 39.2911 12.9134 38.8559 10.871L33.7833 12.2605C33.2141 12.4112 32.7286 12.4447 32.2097 12.361L34.0847 19.2416Z" fill="#9EFF00"/>
</svg>
