<svg width="33" height="34" viewBox="0 0 33 34" fill="none" xmlns="http://www.w3.org/2000/svg">
<path fill-rule="evenodd" clip-rule="evenodd" d="M9 5.75C9 2.98858 11.2386 0.75 14 0.75H19C21.7614 0.75 24 2.98858 24 5.75V6.09163C25.5541 6.23389 27.0957 6.41994 28.6234 6.64853C31.0468 7.01113 32.75 9.11939 32.75 11.5095V16.5648C32.75 18.5834 31.5273 20.4854 29.5229 21.1518C25.4277 22.5133 21.0486 23.25 16.5001 23.25C11.9514 23.25 7.57237 22.5133 3.47711 21.1518C1.47273 20.4854 0.25 18.5833 0.25 16.5648V11.5095C0.25 9.11939 1.95318 7.01114 4.3766 6.64853C5.90434 6.41994 7.44589 6.2339 9 6.09163V5.75ZM21.5 5.75V5.90137C19.8461 5.80094 18.1789 5.75 16.5 5.75C14.8211 5.75 13.1539 5.80094 11.5 5.90137V5.75C11.5 4.36929 12.6193 3.25 14 3.25H19C20.3807 3.25 21.5 4.36929 21.5 5.75ZM16.5 19.5C17.1904 19.5 17.75 18.9404 17.75 18.25C17.75 17.5596 17.1904 17 16.5 17C15.8096 17 15.25 17.5596 15.25 18.25C15.25 18.9404 15.8096 19.5 16.5 19.5Z" fill="#9EFF00"/>
<path d="M1.5 27.6666V23.0065C1.87173 23.2104 2.26829 23.3844 2.68839 23.5241C7.03478 24.9691 11.68 25.75 16.5001 25.75C21.3201 25.75 25.9652 24.9691 30.3116 23.5241C30.7317 23.3845 31.1283 23.2105 31.5 23.0066V27.6666C31.5 30.0865 29.7546 32.2125 27.2948 32.5391C23.7626 33.008 20.1592 33.25 16.5 33.25C12.8408 33.25 9.23744 33.008 5.70522 32.5391C3.2454 32.2125 1.5 30.0865 1.5 27.6666Z" fill="#9EFF00"/>
</svg>
