<svg width="36" height="32" viewBox="0 0 36 32" fill="none" xmlns="http://www.w3.org/2000/svg">
<path fill-rule="evenodd" clip-rule="evenodd" d="M7.13021 6.26478C7.45297 5.21581 8.42214 4.5 9.51966 4.5H13C13.6904 4.5 14.25 3.94036 14.25 3.25C14.25 2.55964 13.6904 2 13 2H9.51966C7.32463 2 5.38629 3.43161 4.74076 5.52957L0.721105 18.5934C0.574526 19.0698 0.5 19.5655 0.5 20.0639V27C0.5 29.7614 2.73858 32 5.5 32H30.5C33.2614 32 35.5 29.7614 35.5 27V20.0639C35.5 19.5655 35.4255 19.0698 35.2789 18.5934L31.2592 5.52957C30.6137 3.43161 28.6754 2 26.4803 2H23C22.3096 2 21.75 2.55964 21.75 3.25C21.75 3.94036 22.3096 4.5 23 4.5H26.4803C27.5779 4.5 28.547 5.21581 28.8698 6.26478L32.5575 18.25H27.8176C25.9238 18.25 24.1925 19.32 23.3455 21.0139L22.9184 21.868C22.495 22.715 21.6293 23.25 20.6824 23.25H15.3176C14.3707 23.25 13.505 22.715 13.0816 21.868L12.6545 21.0139C11.8075 19.32 10.0762 18.25 8.18237 18.25H3.44245L7.13021 6.26478Z" fill="#9EFF00"/>
<path fill-rule="evenodd" clip-rule="evenodd" d="M18 0.75C18.6904 0.75 19.25 1.30964 19.25 2V12.7322L22.1161 9.86612C22.6043 9.37796 23.3957 9.37796 23.8839 9.86612C24.372 10.3543 24.372 11.1457 23.8839 11.6339L18.8839 16.6339C18.3957 17.122 17.6043 17.122 17.1161 16.6339L12.1161 11.6339C11.628 11.1457 11.628 10.3543 12.1161 9.86612C12.6043 9.37796 13.3957 9.37796 13.8839 9.86612L16.75 12.7322V2C16.75 1.30964 17.3096 0.75 18 0.75Z" fill="#9EFF00"/>
</svg>
