<svg width="33" height="32" viewBox="0 0 33 32" fill="none" xmlns="http://www.w3.org/2000/svg">
<path d="M3.06066 0.43934C2.47487 -0.146446 1.52513 -0.146446 0.93934 0.43934C0.353554 1.02513 0.353554 1.97487 0.93934 2.56066L7.37868 9H2C1.17157 9 0.5 9.67157 0.5 10.5C0.5 11.3284 1.17157 12 2 12H11C11.8284 12 12.5 11.3284 12.5 10.5V1.5C12.5 0.671573 11.8284 0 11 0C10.1716 0 9.5 0.671573 9.5 1.5V6.87868L3.06066 0.43934Z" fill="#9EFF00"/>
<path d="M23.5 1.5C23.5 0.671573 22.8284 0 22 0C21.1716 0 20.5 0.671573 20.5 1.5V10.5C20.5 11.3284 21.1716 12 22 12H31C31.8284 12 32.5 11.3284 32.5 10.5C32.5 9.67157 31.8284 9 31 9H25.6213L32.0607 2.56066C32.6464 1.97487 32.6464 1.02513 32.0607 0.43934C31.4749 -0.146446 30.5251 -0.146446 29.9393 0.43934L23.5 6.87868V1.5Z" fill="#9EFF00"/>
<path d="M3.06066 31.5607L9.5 25.1213V30.5C9.5 31.3284 10.1716 32 11 32C11.8284 32 12.5 31.3284 12.5 30.5V21.5C12.5 20.6716 11.8284 20 11 20H2C1.17157 20 0.5 20.6716 0.5 21.5C0.5 22.3284 1.17157 23 2 23H7.37868L0.93934 29.4393C0.353554 30.0251 0.353554 30.9749 0.93934 31.5607C1.52513 32.1464 2.47487 32.1464 3.06066 31.5607Z" fill="#9EFF00"/>
<path d="M23.5 25.1213L29.9393 31.5607C30.5251 32.1464 31.4749 32.1464 32.0607 31.5607C32.6464 30.9749 32.6464 30.0251 32.0607 29.4393L25.6213 23H31C31.8284 23 32.5 22.3284 32.5 21.5C32.5 20.6716 31.8284 20 31 20H22C21.1716 20 20.5 20.6716 20.5 21.5V30.5C20.5 31.3284 21.1716 32 22 32C22.8284 32 23.5 31.3284 23.5 30.5V25.1213Z" fill="#9EFF00"/>
</svg>
