<svg width="39" height="30" viewBox="0 0 39 30" fill="none" xmlns="http://www.w3.org/2000/svg">
<path d="M4.46355 18.2701H14.57C16.9361 18.2701 18.3149 16.9225 18.3149 14.5879V4.48134C18.3149 2.14666 16.9361 0.799126 14.57 0.799126H4.46355C2.1132 0.799126 0.75 2.13099 0.75 4.48134V14.5879C0.75 16.9382 2.1132 18.2701 4.46355 18.2701ZM24.8332 18.4737H35.1435C37.5878 18.4737 38.9824 17.0949 38.9824 14.7132V4.37165C38.9824 1.9743 37.5878 0.595428 35.1435 0.595428H24.8332C22.4045 0.595428 21.0099 1.9743 21.0099 4.37165V14.7132C21.0099 17.0949 22.4045 18.4737 24.8332 18.4737ZM24.8646 15.998C23.9402 15.998 23.4857 15.5436 23.4857 14.6035V4.46566C23.4857 3.52553 23.9402 3.07114 24.8646 3.07114H35.1121C36.068 3.07114 36.5067 3.52553 36.5067 4.46566V14.6035C36.5067 15.5436 36.068 15.998 35.1121 15.998H24.8646ZM1.94084 24.1303C1.29841 24.1303 0.75 24.6944 0.75 25.3995C0.75 26.1045 1.29841 26.653 1.94084 26.653H7.00193V24.1303H1.94084ZM9.72833 29.16C11.7966 29.16 13.4889 27.4678 13.4889 25.3995C13.4889 23.3155 11.7966 21.6232 9.72833 21.6232C7.66003 21.6232 5.96777 23.3155 5.96777 25.3995C5.96777 27.4678 7.66003 29.16 9.72833 29.16ZM9.72833 27.2327C8.69418 27.2327 7.89506 26.4179 7.89506 25.3838C7.89506 24.3496 8.69418 23.5505 9.72833 23.5505C10.7468 23.5505 11.5616 24.3496 11.5616 25.3838C11.5616 26.4179 10.7468 27.2327 9.72833 27.2327ZM12.2197 24.1303V26.653H37.7131C38.4183 26.653 38.9824 26.1045 38.9824 25.3995C38.9824 24.6944 38.4183 24.1303 37.7131 24.1303H12.2197Z" fill="#9EFF00"/>
</svg>
