<svg width="31" height="34" viewBox="0 0 31 34" fill="none" xmlns="http://www.w3.org/2000/svg">
<path d="M25.875 0.75C24.1491 0.75 22.75 2.14911 22.75 3.875V30.125C22.75 31.8509 24.1491 33.25 25.875 33.25H27.125C28.8509 33.25 30.25 31.8509 30.25 30.125V3.875C30.25 2.14911 28.8509 0.75 27.125 0.75H25.875Z" fill="#9EFF00"/>
<path d="M11.5 11.375C11.5 9.64911 12.8991 8.25 14.625 8.25H15.875C17.6009 8.25 19 9.64911 19 11.375V30.125C19 31.8509 17.6009 33.25 15.875 33.25H14.625C12.8991 33.25 11.5 31.8509 11.5 30.125V11.375Z" fill="#9EFF00"/>
<path d="M0.25 18.875C0.25 17.1491 1.64911 15.75 3.375 15.75H4.625C6.35089 15.75 7.75 17.1491 7.75 18.875V30.125C7.75 31.8509 6.35089 33.25 4.625 33.25H3.375C1.64911 33.25 0.25 31.8509 0.25 30.125V18.875Z" fill="#9EFF00"/>
</svg>
