<svg width="31" height="36" viewBox="0 0 31 36" fill="none" xmlns="http://www.w3.org/2000/svg">
<path d="M30.75 8.625C30.75 13.1123 24.0343 16.75 15.75 16.75C7.46573 16.75 0.75 13.1123 0.75 8.625C0.75 4.13769 7.46573 0.5 15.75 0.5C24.0343 0.5 30.75 4.13769 30.75 8.625Z" fill="#9EFF00"/>
<path d="M15.75 19.25C20.2253 19.25 24.4009 18.2728 27.5473 16.5685C28.6973 15.9456 29.7913 15.1739 30.7078 14.2612C30.7358 14.4638 30.75 14.6685 30.75 14.875C30.75 19.3623 24.0343 23 15.75 23C7.46573 23 0.75 19.3623 0.75 14.875C0.75 14.6685 0.764219 14.4638 0.792156 14.2612C1.70871 15.1739 2.8027 15.9456 3.95269 16.5685C7.09915 18.2728 11.2747 19.25 15.75 19.25Z" fill="#9EFF00"/>
<path d="M15.75 25.5C20.2253 25.5 24.4009 24.5228 27.5473 22.8185C28.6973 22.1956 29.7913 21.4239 30.7078 20.5112C30.7358 20.7138 30.75 20.9185 30.75 21.125C30.75 25.6123 24.0343 29.25 15.75 29.25C7.46573 29.25 0.75 25.6123 0.75 21.125C0.75 20.9185 0.764219 20.7138 0.792156 20.5112C1.70871 21.4239 2.8027 22.1956 3.95269 22.8185C7.09915 24.5228 11.2747 25.5 15.75 25.5Z" fill="#9EFF00"/>
<path d="M15.75 31.75C20.2253 31.75 24.4009 30.7728 27.5473 29.0685C28.6973 28.4456 29.7913 27.6739 30.7078 26.7612C30.7358 26.9638 30.75 27.1685 30.75 27.375C30.75 31.8623 24.0343 35.5 15.75 35.5C7.46573 35.5 0.75 31.8623 0.75 27.375C0.75 27.1685 0.764219 26.9638 0.792156 26.7612C1.70871 27.6739 2.8027 28.4456 3.95269 29.0685C7.09915 30.7728 11.2747 31.75 15.75 31.75Z" fill="#9EFF00"/>
</svg>
