<svg width="37" height="32" viewBox="0 0 37 32" fill="none" xmlns="http://www.w3.org/2000/svg">
<path d="M0.0976562 30.1182C0.0976562 30.9218 0.633371 31.4408 1.43694 31.4408H34.7349C35.4715 31.4408 36.0909 30.8548 36.0909 30.1015C36.0909 29.365 35.4715 28.7622 34.7349 28.7622H3.26171C2.91016 28.7622 2.79297 28.6451 2.79297 28.2935V1.82585C2.79297 1.10599 2.19028 0.486572 1.45368 0.486572C0.700335 0.486572 0.0976562 1.10599 0.0976562 1.82585V30.1182ZM1.85547 19.7054L12.62 13.4776L20.3711 20.1238L34.1489 11.9207L33.0944 10.2131L20.5051 17.7131L12.7874 11.1004L1.85547 17.4118V19.7054ZM12.4023 15.7377C14.043 15.7377 15.3822 14.3984 15.3822 12.7578C15.3822 11.1171 14.043 9.79461 12.4023 9.79461C10.7617 9.79461 9.42243 11.1171 9.42243 12.7578C9.42243 14.3984 10.7617 15.7377 12.4023 15.7377ZM20.3041 21.8817C21.9448 21.8817 23.2674 20.5424 23.2674 18.9017C23.2674 17.2611 21.9448 15.9385 20.3041 15.9385C18.6635 15.9385 17.3242 17.2611 17.3242 18.9017C17.3242 20.5424 18.6635 21.8817 20.3041 21.8817ZM32.9269 14.2645C34.5675 14.2645 35.9068 12.9252 35.9068 11.2846C35.9068 9.64394 34.5675 8.30465 32.9269 8.30465C31.2862 8.30465 29.9469 9.64394 29.9469 11.2846C29.9469 12.9252 31.2862 14.2645 32.9269 14.2645Z" fill="#9EFF00"/>
</svg>
