<svg width="25" height="36" viewBox="0 0 25 36" fill="none" xmlns="http://www.w3.org/2000/svg">
<path d="M2.01927 35.62C2.90553 35.62 3.33923 35.1487 3.49008 34.3755L7.22369 15.3681L5.33803 16.8955H19.4051L17.5194 15.3681L21.253 34.3755C21.4039 35.1487 21.8375 35.62 22.7238 35.62C23.9871 35.62 24.4209 34.7527 24.2134 33.7343L20.6872 15.7829C20.461 14.595 19.4615 13.7276 18.3114 13.7276H6.45057C5.30031 13.7276 4.30092 14.595 4.07463 15.7829L0.548462 33.7343C0.34104 34.7527 0.793597 35.62 2.01927 35.62ZM6.03571 15.255H18.7262L14.0309 1.24453C13.748 0.452557 13.2201 0 12.4092 0C11.5607 0 10.9761 0.452557 10.7121 1.24453L6.03571 15.255Z" fill="#9EFF00"/>
</svg>
