<svg width="38" height="27" viewBox="0 0 38 27" fill="none" xmlns="http://www.w3.org/2000/svg">
<path d="M0.75 19.4542C0.75 19.7568 0.901341 20.1146 1.13523 20.3484L7.20262 26.5672C7.46404 26.8424 7.78047 26.98 8.12443 26.98C8.45463 26.98 8.77107 26.8424 9.03248 26.5672L15.1137 20.3484C15.3475 20.1146 15.4851 19.7568 15.4851 19.4542C15.4851 18.725 14.9898 18.2435 14.2743 18.2435C13.9166 18.2435 13.6415 18.3535 13.4351 18.5736L11.4402 20.6787L9.21133 23.2378L9.34892 20.0595V6.92041L9.21133 3.74225L11.4402 6.30129L13.4351 8.40631C13.6415 8.62644 13.9166 8.7365 14.2743 8.7365C14.9898 8.7365 15.4851 8.25496 15.4851 7.52578C15.4851 7.22309 15.3475 6.86538 15.1137 6.63149L9.03248 0.412747C8.77107 0.137583 8.45463 0 8.12443 0C7.78047 0 7.46404 0.137583 7.20262 0.412747L1.13523 6.63149C0.901341 6.86538 0.75 7.22309 0.75 7.52578C0.75 8.25496 1.2453 8.7365 1.96073 8.7365C2.31845 8.7365 2.60737 8.61268 2.79998 8.40631L4.80869 6.30129L7.02377 3.74225L6.88619 6.92041V20.0595L7.02377 23.2378L4.80869 20.6787L2.79998 18.5736C2.60737 18.3673 2.31845 18.2435 1.96073 18.2435C1.2453 18.2435 0.75 18.725 0.75 19.4542ZM18.1679 9.85091C18.1679 10.2499 18.4707 10.5663 18.8971 10.6214C25.3773 11.3506 26.3267 12.2586 27.1933 18.9451C27.2621 19.3579 27.5787 19.6331 27.9501 19.6331C28.3353 19.6331 28.6517 19.3579 28.7205 18.9451C29.5873 12.2586 30.5229 11.3506 37.003 10.6214C37.4433 10.5663 37.7322 10.2499 37.7322 9.85091C37.7322 9.45193 37.4433 9.13549 37.003 9.08046C30.5367 8.35127 29.5873 7.42946 28.7205 0.756704C28.6517 0.357716 28.3491 0.0825496 27.9501 0.0825496C27.5648 0.0825496 27.2621 0.357716 27.1933 0.756704C26.2716 7.38819 25.3911 8.21368 18.8971 9.08046C18.4707 9.13549 18.1679 9.45193 18.1679 9.85091ZM16.861 21.8344C16.861 22.1095 17.0535 22.3434 17.3562 22.4122C20.8646 23.0726 20.9334 23.0314 21.3323 26.3333C21.3874 26.6497 21.6075 26.8836 21.9102 26.8836C22.2267 26.8836 22.4468 26.6635 22.5018 26.3471C22.942 22.8938 23.0934 22.8938 26.4504 22.4122C26.7669 22.3572 26.9732 22.1234 26.9732 21.8344C26.9732 21.5592 26.7807 21.3115 26.4642 21.2566C23.0522 20.5962 22.9559 20.6787 22.5018 17.3079C22.4468 17.0052 22.2128 16.7851 21.9102 16.7851C21.6075 16.7851 21.3874 17.019 21.3323 17.3354C20.9334 20.6374 20.8508 20.6924 17.4113 21.2566C17.0673 21.3115 16.861 21.5316 16.861 21.8344Z" fill="#9EFF00"/>
</svg>
