<svg width="32" height="34" viewBox="0 0 32 34" fill="none" xmlns="http://www.w3.org/2000/svg">
<path d="M0 17.6977V20.0669C0 23.1754 1.56938 24.7449 4.73833 24.7449H8.55614V22.3154H4.7685C3.25948 22.3154 2.42952 21.5005 2.42952 19.9311V17.6977H0ZM2.42952 15.6304V8.77943H0V15.6304H2.42952ZM2.42952 6.72716V4.93143C2.42952 3.36205 3.25948 2.54718 4.7685 2.54718H6.95658V0.117661H4.73833C1.56938 0.117661 0 1.68704 0 4.79562V6.72716H2.42952ZM15.8598 0.117661H9.00884V2.54718H15.8598V0.117661ZM17.9121 2.54718H19.8437C21.3375 2.54718 22.1826 3.36205 22.1826 4.93143V8.23619H24.6121V4.79562C24.6121 1.68704 23.0276 0.117661 19.8889 0.117661H17.9121V2.54718ZM31.9309 23.4622V11.7824C31.9309 8.6738 30.3464 7.10442 27.2076 7.10442H12.0571C8.88812 7.10442 7.31874 8.65871 7.31874 11.7824V27.0537C7.31874 30.1622 8.88812 31.7317 12.0571 31.7317H19.6625V29.3022H12.0873C10.5933 29.3022 9.74827 28.4872 9.74827 26.9179V11.9183C9.74827 10.3488 10.5933 9.53394 12.0873 9.53394H27.1624C28.6563 9.53394 29.5014 10.3488 29.5014 11.9183V21.0176L31.9309 23.4622ZM21.0206 29.0003C21.0056 29.5888 21.6998 29.7699 22.0769 29.4078L24.3858 27.0989L26.9662 33.467C27.087 33.7537 27.3887 33.8896 27.6604 33.7839L29.1693 33.1803C29.4259 33.0595 29.5466 32.7426 29.3957 32.456L26.6946 26.1785L29.954 26.0577C30.5124 26.0276 30.7991 25.4692 30.3917 25.0467L22.1373 16.5659C21.76 16.1736 21.1715 16.4 21.1565 16.9583L21.0206 29.0003Z" fill="#9EFF00"/>
</svg>
