<svg width="38" height="36" viewBox="0 0 38 36" fill="none" xmlns="http://www.w3.org/2000/svg">
<path d="M11.7937 25.8917C11.258 25.3393 10.3037 25.3393 9.73451 25.8917L6.28585 29.3237C5.7334 29.8762 5.7334 30.8303 6.26911 31.3829C6.82157 31.9353 7.77581 31.952 8.34501 31.3996L11.7937 27.9509C12.3629 27.3984 12.3629 26.461 11.7937 25.8917ZM8.76354 18.5926C8.76354 17.8059 8.09388 17.1362 7.29031 17.1362H2.38518C1.59835 17.1362 0.928711 17.8059 0.928711 18.5926C0.928711 19.3794 1.59835 20.0492 2.38518 20.0492H7.29031C8.09388 20.0492 8.76354 19.3794 8.76354 18.5926ZM11.6263 11.1429C12.1955 10.5904 12.1955 9.65292 11.6263 9.08372L8.19434 5.63506C7.64188 5.0826 6.70438 5.06586 6.13518 5.61832C5.58273 6.17077 5.58273 7.10827 6.13518 7.67747L9.56711 11.1429C10.1363 11.7121 11.0738 11.7121 11.6263 11.1429ZM19.0927 8.22993C19.8963 8.22993 20.566 7.56029 20.566 6.77346V1.88506C20.566 1.09823 19.8963 0.428589 19.0927 0.428589C18.306 0.428589 17.6363 1.09823 17.6363 1.88506V6.77346C17.6363 7.56029 18.306 8.22993 19.0927 8.22993ZM26.3751 11.3103C26.9443 11.8795 27.8986 11.8795 28.451 11.3103L31.8997 7.86162C32.4689 7.29243 32.4689 6.35493 31.8997 5.78573C31.3473 5.23327 30.4097 5.23327 29.8573 5.78573L26.3751 9.25113C25.8227 9.82033 25.8227 10.7578 26.3751 11.3103ZM29.4556 18.5926C29.4556 19.3794 30.1251 20.0492 30.912 20.0492H35.8004C36.604 20.0492 37.2736 19.3794 37.2736 18.5926C37.2736 17.8059 36.604 17.1362 35.8004 17.1362H30.912C30.1251 17.1362 29.4556 17.8059 29.4556 18.5926ZM17.7703 30.2277C17.7534 30.8806 18.5069 31.0814 18.9421 30.663L21.4867 28.1016L24.3494 35.183C24.4834 35.4844 24.8183 35.6517 25.1196 35.5179L26.7937 34.865C27.095 34.7143 27.2121 34.3627 27.0616 34.0614L24.0481 27.0972L27.6641 26.9464C28.2836 26.913 28.6017 26.3103 28.1497 25.8247L18.9923 16.433C18.5739 15.9977 17.9376 16.2322 17.9209 16.8516L17.7703 30.2277Z" fill="#9EFF00"/>
</svg>
