<svg width="28" height="31" viewBox="0 0 28 31" fill="none" xmlns="http://www.w3.org/2000/svg">
<path d="M9.04525 30.8476H23.4678C26.2627 30.8476 27.6601 29.4366 27.6601 26.5873V10.1297C27.6601 7.29408 26.2627 5.86947 23.4678 5.86947H10.4834L12.7086 8.05388H23.3457C24.7566 8.05388 25.4757 8.8001 25.4757 10.1569V26.5602C25.4757 27.917 24.7566 28.6632 23.3592 28.6632H9.1538C7.75632 28.6632 7.02367 27.917 7.02367 26.5602V16.8729H4.83926V26.5873C4.83926 29.4366 6.25031 30.8476 9.04525 30.8476ZM11.1075 13.8745H21.0934C21.5682 13.8745 21.9346 13.5081 21.9346 13.0332C21.9346 12.572 21.5682 12.2056 21.0934 12.2056H11.1075C10.6055 12.2056 10.2528 12.572 10.2528 13.0332C10.2528 13.5081 10.6055 13.8745 11.1075 13.8745ZM11.1075 19.193H21.0934C21.5682 19.193 21.9346 18.8131 21.9346 18.3382C21.9346 17.8769 21.5682 17.5241 21.0934 17.5241H11.1075C10.6055 17.5241 10.2528 17.8769 10.2528 18.3382C10.2528 18.8131 10.6055 19.193 11.1075 19.193ZM11.1075 24.4979H21.0934C21.5682 24.4979 21.9346 24.1452 21.9346 23.6839C21.9346 23.2091 21.5682 22.8291 21.0934 22.8291H11.1075C10.6055 22.8291 10.2528 23.2091 10.2528 23.6839C10.2528 24.1452 10.6055 24.4979 11.1075 24.4979ZM0.918186 11.3644C0.904619 11.88 1.52873 12.0564 1.86793 11.7172L3.94379 9.64131L6.26388 15.3668C6.37242 15.6247 6.64377 15.7468 6.88799 15.6518L8.24475 15.1091C8.47541 15.0005 8.57038 14.7156 8.44827 14.4579L6.01965 8.82724L8.93671 8.70513C9.45228 8.67799 9.71007 8.18956 9.34374 7.7961L1.9222 0.171036C1.58301 -0.168157 1.05386 0.0217909 1.0403 0.523796L0.918186 11.3644Z" fill="#9EFF00"/>
</svg>
